G04 #@! TF.FileFunction,Soldermask,Top*
%FSLAX46Y46*%
G04 Gerber Fmt 4.6, Leading zero omitted, Abs format (unit mm)*
G04 Created by KiCad (PCBNEW 4.0.6) date Sunday, June 10, 2018 'PMt' 08:16:35 PM*
%MOMM*%
%LPD*%
G01*
G04 APERTURE LIST*
%ADD10C,0.100000*%
%ADD11C,5.400000*%
%ADD12O,3.041600X1.720800*%
%ADD13R,2.100000X2.100000*%
%ADD14O,2.100000X2.100000*%
G04 APERTURE END LIST*
D10*
D11*
X135912000Y-72956000D03*
X142112000Y-72456000D03*
X170390000Y-38478000D03*
X176590000Y-37978000D03*
D12*
X162620000Y-75530000D03*
X162620000Y-78070000D03*
X162620000Y-80610000D03*
X162620000Y-83150000D03*
X162620000Y-85690000D03*
X162620000Y-88230000D03*
X162620000Y-90770000D03*
X162620000Y-93310000D03*
X162620000Y-95850000D03*
X162620000Y-98390000D03*
X162620000Y-100930000D03*
X162620000Y-103470000D03*
X147380000Y-103470000D03*
X147380000Y-100930000D03*
X147380000Y-98390000D03*
X147380000Y-95850000D03*
X147380000Y-93310000D03*
X147380000Y-90770000D03*
X147380000Y-88230000D03*
X147380000Y-85690000D03*
X147380000Y-83150000D03*
X147380000Y-80610000D03*
X147380000Y-78070000D03*
X147380000Y-75530000D03*
D11*
X101434000Y-38478000D03*
X107634000Y-37978000D03*
X101434000Y-72956000D03*
X107634000Y-72456000D03*
X101434000Y-107434000D03*
X107634000Y-106934000D03*
X101434000Y-141912000D03*
X107634000Y-141412000D03*
X135912000Y-38478000D03*
X142112000Y-37978000D03*
X135912000Y-107434000D03*
X142112000Y-106934000D03*
X135912000Y-141912000D03*
X142112000Y-141412000D03*
X170390000Y-72956000D03*
X176590000Y-72456000D03*
X170390000Y-107434000D03*
X176590000Y-106934000D03*
X170390000Y-141912000D03*
X176590000Y-141412000D03*
X204868000Y-38478000D03*
X211068000Y-37978000D03*
X204868000Y-72956000D03*
X211068000Y-72456000D03*
X204868000Y-107434000D03*
X211068000Y-106934000D03*
X204868000Y-141912000D03*
X211068000Y-141412000D03*
D13*
X87000000Y-90000000D03*
D14*
X89540000Y-90000000D03*
X87000000Y-87460000D03*
X89540000Y-87460000D03*
X87000000Y-84920000D03*
X89540000Y-84920000D03*
X87000000Y-82380000D03*
X89540000Y-82380000D03*
M02*
