M48
;DRILL file {KiCad 4.0.6} date Sunday, June 10, 2018 'PMt' 08:16:40 PM
;FORMAT={-:-/ absolute / metric / decimal}
FMAT,2
METRIC,TZ
T1C0.400
T2C0.813
T3C1.000
T4C2.900
%
G90
G05
M71
T1
X106.73Y-79.57
X108.63Y-79.74
X109.88Y-88.99
X114.53Y-92.09
X114.68Y-84.19
X115.02Y-91.14
X115.9Y-93.88
X116.28Y-90.64
X116.59Y-93.04
X117.65Y-91.86
X136.79Y-100.19
X138.92Y-102.43
X140.76Y-101.37
X145.88Y-67.03
X150.26Y-108.57
X150.33Y-112.64
X152.13Y-75.36
X154.53Y-77.42
X156.02Y-80.28
X156.44Y-100.58
X157.Y-112.55
X157.01Y-108.57
X157.85Y-96.55
T2
X147.38Y-75.53
X147.38Y-78.07
X147.38Y-80.61
X147.38Y-83.15
X147.38Y-85.69
X147.38Y-88.23
X147.38Y-90.77
X147.38Y-93.31
X147.38Y-95.85
X147.38Y-98.39
X147.38Y-100.93
X147.38Y-103.47
X162.62Y-75.53
X162.62Y-78.07
X162.62Y-80.61
X162.62Y-83.15
X162.62Y-85.69
X162.62Y-88.23
X162.62Y-90.77
X162.62Y-93.31
X162.62Y-95.85
X162.62Y-98.39
X162.62Y-100.93
X162.62Y-103.47
T3
X87.Y-82.38
X87.Y-84.92
X87.Y-87.46
X87.Y-90.
X89.54Y-82.38
X89.54Y-84.92
X89.54Y-87.46
X89.54Y-90.
T4
X101.434Y-38.478
X101.434Y-72.956
X101.434Y-107.434
X101.434Y-141.912
X107.634Y-37.978
X107.634Y-72.456
X107.634Y-106.934
X107.634Y-141.412
X135.912Y-38.478
X135.912Y-72.956
X135.912Y-107.434
X135.912Y-141.912
X142.112Y-37.978
X142.112Y-72.456
X142.112Y-106.934
X142.112Y-141.412
X170.39Y-38.478
X170.39Y-72.956
X170.39Y-107.434
X170.39Y-141.912
X176.59Y-37.978
X176.59Y-72.456
X176.59Y-106.934
X176.59Y-141.412
X204.868Y-38.478
X204.868Y-72.956
X204.868Y-107.434
X204.868Y-141.912
X211.068Y-37.978
X211.068Y-72.456
X211.068Y-106.934
X211.068Y-141.412
T0
M30
