G04 #@! TF.FileFunction,Legend,Top*
%FSLAX46Y46*%
G04 Gerber Fmt 4.6, Leading zero omitted, Abs format (unit mm)*
G04 Created by KiCad (PCBNEW 4.0.6) date Sunday, June 10, 2018 'PMt' 08:16:35 PM*
%MOMM*%
%LPD*%
G01*
G04 APERTURE LIST*
%ADD10C,0.100000*%
%ADD11C,0.300000*%
%ADD12C,0.150000*%
G04 APERTURE END LIST*
D10*
D11*
X130392857Y-61975000D02*
X131107143Y-61975000D01*
X130250000Y-62403571D02*
X130750000Y-60903571D01*
X131250000Y-62403571D01*
X131750000Y-62403571D02*
X131750000Y-61403571D01*
X131750000Y-61689286D02*
X131821428Y-61546429D01*
X131892857Y-61475000D01*
X132035714Y-61403571D01*
X132178571Y-61403571D01*
X133321428Y-62332143D02*
X133178571Y-62403571D01*
X132892857Y-62403571D01*
X132749999Y-62332143D01*
X132678571Y-62260714D01*
X132607142Y-62117857D01*
X132607142Y-61689286D01*
X132678571Y-61546429D01*
X132749999Y-61475000D01*
X132892857Y-61403571D01*
X133178571Y-61403571D01*
X133321428Y-61475000D01*
X134607142Y-62403571D02*
X134607142Y-61617857D01*
X134535713Y-61475000D01*
X134392856Y-61403571D01*
X134107142Y-61403571D01*
X133964285Y-61475000D01*
X134607142Y-62332143D02*
X134464285Y-62403571D01*
X134107142Y-62403571D01*
X133964285Y-62332143D01*
X133892856Y-62189286D01*
X133892856Y-62046429D01*
X133964285Y-61903571D01*
X134107142Y-61832143D01*
X134464285Y-61832143D01*
X134607142Y-61760714D01*
X135964285Y-62403571D02*
X135964285Y-60903571D01*
X135964285Y-62332143D02*
X135821428Y-62403571D01*
X135535714Y-62403571D01*
X135392856Y-62332143D01*
X135321428Y-62260714D01*
X135249999Y-62117857D01*
X135249999Y-61689286D01*
X135321428Y-61546429D01*
X135392856Y-61475000D01*
X135535714Y-61403571D01*
X135821428Y-61403571D01*
X135964285Y-61475000D01*
X137249999Y-62332143D02*
X137107142Y-62403571D01*
X136821428Y-62403571D01*
X136678571Y-62332143D01*
X136607142Y-62189286D01*
X136607142Y-61617857D01*
X136678571Y-61475000D01*
X136821428Y-61403571D01*
X137107142Y-61403571D01*
X137249999Y-61475000D01*
X137321428Y-61617857D01*
X137321428Y-61760714D01*
X136607142Y-61903571D01*
X139107142Y-62403571D02*
X139107142Y-60903571D01*
X139107142Y-61475000D02*
X139249999Y-61403571D01*
X139535713Y-61403571D01*
X139678570Y-61475000D01*
X139749999Y-61546429D01*
X139821428Y-61689286D01*
X139821428Y-62117857D01*
X139749999Y-62260714D01*
X139678570Y-62332143D01*
X139535713Y-62403571D01*
X139249999Y-62403571D01*
X139107142Y-62332143D01*
X141107142Y-61403571D02*
X141107142Y-62403571D01*
X140464285Y-61403571D02*
X140464285Y-62189286D01*
X140535713Y-62332143D01*
X140678571Y-62403571D01*
X140892856Y-62403571D01*
X141035713Y-62332143D01*
X141107142Y-62260714D01*
X141607142Y-61403571D02*
X142178571Y-61403571D01*
X141821428Y-60903571D02*
X141821428Y-62189286D01*
X141892856Y-62332143D01*
X142035714Y-62403571D01*
X142178571Y-62403571D01*
X142464285Y-61403571D02*
X143035714Y-61403571D01*
X142678571Y-60903571D02*
X142678571Y-62189286D01*
X142749999Y-62332143D01*
X142892857Y-62403571D01*
X143035714Y-62403571D01*
X143750000Y-62403571D02*
X143607142Y-62332143D01*
X143535714Y-62260714D01*
X143464285Y-62117857D01*
X143464285Y-61689286D01*
X143535714Y-61546429D01*
X143607142Y-61475000D01*
X143750000Y-61403571D01*
X143964285Y-61403571D01*
X144107142Y-61475000D01*
X144178571Y-61546429D01*
X144250000Y-61689286D01*
X144250000Y-62117857D01*
X144178571Y-62260714D01*
X144107142Y-62332143D01*
X143964285Y-62403571D01*
X143750000Y-62403571D01*
X144892857Y-61403571D02*
X144892857Y-62403571D01*
X144892857Y-61546429D02*
X144964285Y-61475000D01*
X145107143Y-61403571D01*
X145321428Y-61403571D01*
X145464285Y-61475000D01*
X145535714Y-61617857D01*
X145535714Y-62403571D01*
X134785715Y-63453571D02*
X135714286Y-63453571D01*
X135214286Y-64025000D01*
X135428572Y-64025000D01*
X135571429Y-64096429D01*
X135642858Y-64167857D01*
X135714286Y-64310714D01*
X135714286Y-64667857D01*
X135642858Y-64810714D01*
X135571429Y-64882143D01*
X135428572Y-64953571D01*
X135000000Y-64953571D01*
X134857143Y-64882143D01*
X134785715Y-64810714D01*
X136642857Y-63453571D02*
X136785714Y-63453571D01*
X136928571Y-63525000D01*
X137000000Y-63596429D01*
X137071429Y-63739286D01*
X137142857Y-64025000D01*
X137142857Y-64382143D01*
X137071429Y-64667857D01*
X137000000Y-64810714D01*
X136928571Y-64882143D01*
X136785714Y-64953571D01*
X136642857Y-64953571D01*
X136500000Y-64882143D01*
X136428571Y-64810714D01*
X136357143Y-64667857D01*
X136285714Y-64382143D01*
X136285714Y-64025000D01*
X136357143Y-63739286D01*
X136428571Y-63596429D01*
X136500000Y-63525000D01*
X136642857Y-63453571D01*
X137785714Y-64953571D02*
X137785714Y-63953571D01*
X137785714Y-64096429D02*
X137857142Y-64025000D01*
X138000000Y-63953571D01*
X138214285Y-63953571D01*
X138357142Y-64025000D01*
X138428571Y-64167857D01*
X138428571Y-64953571D01*
X138428571Y-64167857D02*
X138500000Y-64025000D01*
X138642857Y-63953571D01*
X138857142Y-63953571D01*
X139000000Y-64025000D01*
X139071428Y-64167857D01*
X139071428Y-64953571D01*
X139785714Y-64953571D02*
X139785714Y-63953571D01*
X139785714Y-64096429D02*
X139857142Y-64025000D01*
X140000000Y-63953571D01*
X140214285Y-63953571D01*
X140357142Y-64025000D01*
X140428571Y-64167857D01*
X140428571Y-64953571D01*
X140428571Y-64167857D02*
X140500000Y-64025000D01*
X140642857Y-63953571D01*
X140857142Y-63953571D01*
X141000000Y-64025000D01*
X141071428Y-64167857D01*
X141071428Y-64953571D01*
D12*
X154555317Y-68956000D02*
G75*
G03X154555317Y-68956000I-16643317J0D01*
G01*
X152912000Y-68956000D02*
G75*
G03X152912000Y-68956000I-15000000J0D01*
G01*
X189033317Y-34478000D02*
G75*
G03X189033317Y-34478000I-16643317J0D01*
G01*
X187390000Y-34478000D02*
G75*
G03X187390000Y-34478000I-15000000J0D01*
G01*
X120077317Y-34478000D02*
G75*
G03X120077317Y-34478000I-16643317J0D01*
G01*
X118434000Y-34478000D02*
G75*
G03X118434000Y-34478000I-15000000J0D01*
G01*
X120077317Y-68956000D02*
G75*
G03X120077317Y-68956000I-16643317J0D01*
G01*
X118434000Y-68956000D02*
G75*
G03X118434000Y-68956000I-15000000J0D01*
G01*
X120077317Y-103434000D02*
G75*
G03X120077317Y-103434000I-16643317J0D01*
G01*
X118434000Y-103434000D02*
G75*
G03X118434000Y-103434000I-15000000J0D01*
G01*
X120077317Y-137912000D02*
G75*
G03X120077317Y-137912000I-16643317J0D01*
G01*
X118434000Y-137912000D02*
G75*
G03X118434000Y-137912000I-15000000J0D01*
G01*
X154555317Y-34478000D02*
G75*
G03X154555317Y-34478000I-16643317J0D01*
G01*
X152912000Y-34478000D02*
G75*
G03X152912000Y-34478000I-15000000J0D01*
G01*
X154555317Y-103434000D02*
G75*
G03X154555317Y-103434000I-16643317J0D01*
G01*
X152912000Y-103434000D02*
G75*
G03X152912000Y-103434000I-15000000J0D01*
G01*
X154555317Y-137912000D02*
G75*
G03X154555317Y-137912000I-16643317J0D01*
G01*
X152912000Y-137912000D02*
G75*
G03X152912000Y-137912000I-15000000J0D01*
G01*
X189033317Y-68956000D02*
G75*
G03X189033317Y-68956000I-16643317J0D01*
G01*
X187390000Y-68956000D02*
G75*
G03X187390000Y-68956000I-15000000J0D01*
G01*
X189033317Y-103434000D02*
G75*
G03X189033317Y-103434000I-16643317J0D01*
G01*
X187390000Y-103434000D02*
G75*
G03X187390000Y-103434000I-15000000J0D01*
G01*
X189033317Y-137912000D02*
G75*
G03X189033317Y-137912000I-16643317J0D01*
G01*
X187390000Y-137912000D02*
G75*
G03X187390000Y-137912000I-15000000J0D01*
G01*
X223511317Y-34478000D02*
G75*
G03X223511317Y-34478000I-16643317J0D01*
G01*
X221868000Y-34478000D02*
G75*
G03X221868000Y-34478000I-15000000J0D01*
G01*
X223511317Y-68956000D02*
G75*
G03X223511317Y-68956000I-16643317J0D01*
G01*
X221868000Y-68956000D02*
G75*
G03X221868000Y-68956000I-15000000J0D01*
G01*
X223511317Y-103434000D02*
G75*
G03X223511317Y-103434000I-16643317J0D01*
G01*
X221868000Y-103434000D02*
G75*
G03X221868000Y-103434000I-15000000J0D01*
G01*
X223511317Y-137912000D02*
G75*
G03X223511317Y-137912000I-16643317J0D01*
G01*
X221868000Y-137912000D02*
G75*
G03X221868000Y-137912000I-15000000J0D01*
G01*
X136578667Y-80360762D02*
X136721524Y-80408381D01*
X136959620Y-80408381D01*
X137054858Y-80360762D01*
X137102477Y-80313143D01*
X137150096Y-80217905D01*
X137150096Y-80122667D01*
X137102477Y-80027429D01*
X137054858Y-79979810D01*
X136959620Y-79932190D01*
X136769143Y-79884571D01*
X136673905Y-79836952D01*
X136626286Y-79789333D01*
X136578667Y-79694095D01*
X136578667Y-79598857D01*
X136626286Y-79503619D01*
X136673905Y-79456000D01*
X136769143Y-79408381D01*
X137007239Y-79408381D01*
X137150096Y-79456000D01*
X137483429Y-79408381D02*
X137721524Y-80408381D01*
X137912001Y-79694095D01*
X138102477Y-80408381D01*
X138340572Y-79408381D01*
X139150096Y-79408381D02*
X138959619Y-79408381D01*
X138864381Y-79456000D01*
X138816762Y-79503619D01*
X138721524Y-79646476D01*
X138673905Y-79836952D01*
X138673905Y-80217905D01*
X138721524Y-80313143D01*
X138769143Y-80360762D01*
X138864381Y-80408381D01*
X139054858Y-80408381D01*
X139150096Y-80360762D01*
X139197715Y-80313143D01*
X139245334Y-80217905D01*
X139245334Y-79979810D01*
X139197715Y-79884571D01*
X139150096Y-79836952D01*
X139054858Y-79789333D01*
X138864381Y-79789333D01*
X138769143Y-79836952D01*
X138721524Y-79884571D01*
X138673905Y-79979810D01*
X171056667Y-45882762D02*
X171199524Y-45930381D01*
X171437620Y-45930381D01*
X171532858Y-45882762D01*
X171580477Y-45835143D01*
X171628096Y-45739905D01*
X171628096Y-45644667D01*
X171580477Y-45549429D01*
X171532858Y-45501810D01*
X171437620Y-45454190D01*
X171247143Y-45406571D01*
X171151905Y-45358952D01*
X171104286Y-45311333D01*
X171056667Y-45216095D01*
X171056667Y-45120857D01*
X171104286Y-45025619D01*
X171151905Y-44978000D01*
X171247143Y-44930381D01*
X171485239Y-44930381D01*
X171628096Y-44978000D01*
X171961429Y-44930381D02*
X172199524Y-45930381D01*
X172390001Y-45216095D01*
X172580477Y-45930381D01*
X172818572Y-44930381D01*
X173247143Y-45930381D02*
X173437619Y-45930381D01*
X173532858Y-45882762D01*
X173580477Y-45835143D01*
X173675715Y-45692286D01*
X173723334Y-45501810D01*
X173723334Y-45120857D01*
X173675715Y-45025619D01*
X173628096Y-44978000D01*
X173532858Y-44930381D01*
X173342381Y-44930381D01*
X173247143Y-44978000D01*
X173199524Y-45025619D01*
X173151905Y-45120857D01*
X173151905Y-45358952D01*
X173199524Y-45454190D01*
X173247143Y-45501810D01*
X173342381Y-45549429D01*
X173532858Y-45549429D01*
X173628096Y-45501810D01*
X173675715Y-45454190D01*
X173723334Y-45358952D01*
X102100667Y-45882762D02*
X102243524Y-45930381D01*
X102481620Y-45930381D01*
X102576858Y-45882762D01*
X102624477Y-45835143D01*
X102672096Y-45739905D01*
X102672096Y-45644667D01*
X102624477Y-45549429D01*
X102576858Y-45501810D01*
X102481620Y-45454190D01*
X102291143Y-45406571D01*
X102195905Y-45358952D01*
X102148286Y-45311333D01*
X102100667Y-45216095D01*
X102100667Y-45120857D01*
X102148286Y-45025619D01*
X102195905Y-44978000D01*
X102291143Y-44930381D01*
X102529239Y-44930381D01*
X102672096Y-44978000D01*
X103005429Y-44930381D02*
X103243524Y-45930381D01*
X103434001Y-45216095D01*
X103624477Y-45930381D01*
X103862572Y-44930381D01*
X104767334Y-45930381D02*
X104195905Y-45930381D01*
X104481619Y-45930381D02*
X104481619Y-44930381D01*
X104386381Y-45073238D01*
X104291143Y-45168476D01*
X104195905Y-45216095D01*
X102100667Y-80360762D02*
X102243524Y-80408381D01*
X102481620Y-80408381D01*
X102576858Y-80360762D01*
X102624477Y-80313143D01*
X102672096Y-80217905D01*
X102672096Y-80122667D01*
X102624477Y-80027429D01*
X102576858Y-79979810D01*
X102481620Y-79932190D01*
X102291143Y-79884571D01*
X102195905Y-79836952D01*
X102148286Y-79789333D01*
X102100667Y-79694095D01*
X102100667Y-79598857D01*
X102148286Y-79503619D01*
X102195905Y-79456000D01*
X102291143Y-79408381D01*
X102529239Y-79408381D01*
X102672096Y-79456000D01*
X103005429Y-79408381D02*
X103243524Y-80408381D01*
X103434001Y-79694095D01*
X103624477Y-80408381D01*
X103862572Y-79408381D01*
X104195905Y-79503619D02*
X104243524Y-79456000D01*
X104338762Y-79408381D01*
X104576858Y-79408381D01*
X104672096Y-79456000D01*
X104719715Y-79503619D01*
X104767334Y-79598857D01*
X104767334Y-79694095D01*
X104719715Y-79836952D01*
X104148286Y-80408381D01*
X104767334Y-80408381D01*
X102100667Y-114838762D02*
X102243524Y-114886381D01*
X102481620Y-114886381D01*
X102576858Y-114838762D01*
X102624477Y-114791143D01*
X102672096Y-114695905D01*
X102672096Y-114600667D01*
X102624477Y-114505429D01*
X102576858Y-114457810D01*
X102481620Y-114410190D01*
X102291143Y-114362571D01*
X102195905Y-114314952D01*
X102148286Y-114267333D01*
X102100667Y-114172095D01*
X102100667Y-114076857D01*
X102148286Y-113981619D01*
X102195905Y-113934000D01*
X102291143Y-113886381D01*
X102529239Y-113886381D01*
X102672096Y-113934000D01*
X103005429Y-113886381D02*
X103243524Y-114886381D01*
X103434001Y-114172095D01*
X103624477Y-114886381D01*
X103862572Y-113886381D01*
X104148286Y-113886381D02*
X104767334Y-113886381D01*
X104434000Y-114267333D01*
X104576858Y-114267333D01*
X104672096Y-114314952D01*
X104719715Y-114362571D01*
X104767334Y-114457810D01*
X104767334Y-114695905D01*
X104719715Y-114791143D01*
X104672096Y-114838762D01*
X104576858Y-114886381D01*
X104291143Y-114886381D01*
X104195905Y-114838762D01*
X104148286Y-114791143D01*
X102100667Y-149316762D02*
X102243524Y-149364381D01*
X102481620Y-149364381D01*
X102576858Y-149316762D01*
X102624477Y-149269143D01*
X102672096Y-149173905D01*
X102672096Y-149078667D01*
X102624477Y-148983429D01*
X102576858Y-148935810D01*
X102481620Y-148888190D01*
X102291143Y-148840571D01*
X102195905Y-148792952D01*
X102148286Y-148745333D01*
X102100667Y-148650095D01*
X102100667Y-148554857D01*
X102148286Y-148459619D01*
X102195905Y-148412000D01*
X102291143Y-148364381D01*
X102529239Y-148364381D01*
X102672096Y-148412000D01*
X103005429Y-148364381D02*
X103243524Y-149364381D01*
X103434001Y-148650095D01*
X103624477Y-149364381D01*
X103862572Y-148364381D01*
X104672096Y-148697714D02*
X104672096Y-149364381D01*
X104434000Y-148316762D02*
X104195905Y-149031048D01*
X104814953Y-149031048D01*
X136578667Y-45882762D02*
X136721524Y-45930381D01*
X136959620Y-45930381D01*
X137054858Y-45882762D01*
X137102477Y-45835143D01*
X137150096Y-45739905D01*
X137150096Y-45644667D01*
X137102477Y-45549429D01*
X137054858Y-45501810D01*
X136959620Y-45454190D01*
X136769143Y-45406571D01*
X136673905Y-45358952D01*
X136626286Y-45311333D01*
X136578667Y-45216095D01*
X136578667Y-45120857D01*
X136626286Y-45025619D01*
X136673905Y-44978000D01*
X136769143Y-44930381D01*
X137007239Y-44930381D01*
X137150096Y-44978000D01*
X137483429Y-44930381D02*
X137721524Y-45930381D01*
X137912001Y-45216095D01*
X138102477Y-45930381D01*
X138340572Y-44930381D01*
X139197715Y-44930381D02*
X138721524Y-44930381D01*
X138673905Y-45406571D01*
X138721524Y-45358952D01*
X138816762Y-45311333D01*
X139054858Y-45311333D01*
X139150096Y-45358952D01*
X139197715Y-45406571D01*
X139245334Y-45501810D01*
X139245334Y-45739905D01*
X139197715Y-45835143D01*
X139150096Y-45882762D01*
X139054858Y-45930381D01*
X138816762Y-45930381D01*
X138721524Y-45882762D01*
X138673905Y-45835143D01*
X136578667Y-114838762D02*
X136721524Y-114886381D01*
X136959620Y-114886381D01*
X137054858Y-114838762D01*
X137102477Y-114791143D01*
X137150096Y-114695905D01*
X137150096Y-114600667D01*
X137102477Y-114505429D01*
X137054858Y-114457810D01*
X136959620Y-114410190D01*
X136769143Y-114362571D01*
X136673905Y-114314952D01*
X136626286Y-114267333D01*
X136578667Y-114172095D01*
X136578667Y-114076857D01*
X136626286Y-113981619D01*
X136673905Y-113934000D01*
X136769143Y-113886381D01*
X137007239Y-113886381D01*
X137150096Y-113934000D01*
X137483429Y-113886381D02*
X137721524Y-114886381D01*
X137912001Y-114172095D01*
X138102477Y-114886381D01*
X138340572Y-113886381D01*
X138626286Y-113886381D02*
X139292953Y-113886381D01*
X138864381Y-114886381D01*
X136578667Y-149316762D02*
X136721524Y-149364381D01*
X136959620Y-149364381D01*
X137054858Y-149316762D01*
X137102477Y-149269143D01*
X137150096Y-149173905D01*
X137150096Y-149078667D01*
X137102477Y-148983429D01*
X137054858Y-148935810D01*
X136959620Y-148888190D01*
X136769143Y-148840571D01*
X136673905Y-148792952D01*
X136626286Y-148745333D01*
X136578667Y-148650095D01*
X136578667Y-148554857D01*
X136626286Y-148459619D01*
X136673905Y-148412000D01*
X136769143Y-148364381D01*
X137007239Y-148364381D01*
X137150096Y-148412000D01*
X137483429Y-148364381D02*
X137721524Y-149364381D01*
X137912001Y-148650095D01*
X138102477Y-149364381D01*
X138340572Y-148364381D01*
X138864381Y-148792952D02*
X138769143Y-148745333D01*
X138721524Y-148697714D01*
X138673905Y-148602476D01*
X138673905Y-148554857D01*
X138721524Y-148459619D01*
X138769143Y-148412000D01*
X138864381Y-148364381D01*
X139054858Y-148364381D01*
X139150096Y-148412000D01*
X139197715Y-148459619D01*
X139245334Y-148554857D01*
X139245334Y-148602476D01*
X139197715Y-148697714D01*
X139150096Y-148745333D01*
X139054858Y-148792952D01*
X138864381Y-148792952D01*
X138769143Y-148840571D01*
X138721524Y-148888190D01*
X138673905Y-148983429D01*
X138673905Y-149173905D01*
X138721524Y-149269143D01*
X138769143Y-149316762D01*
X138864381Y-149364381D01*
X139054858Y-149364381D01*
X139150096Y-149316762D01*
X139197715Y-149269143D01*
X139245334Y-149173905D01*
X139245334Y-148983429D01*
X139197715Y-148888190D01*
X139150096Y-148840571D01*
X139054858Y-148792952D01*
X170580476Y-80360762D02*
X170723333Y-80408381D01*
X170961429Y-80408381D01*
X171056667Y-80360762D01*
X171104286Y-80313143D01*
X171151905Y-80217905D01*
X171151905Y-80122667D01*
X171104286Y-80027429D01*
X171056667Y-79979810D01*
X170961429Y-79932190D01*
X170770952Y-79884571D01*
X170675714Y-79836952D01*
X170628095Y-79789333D01*
X170580476Y-79694095D01*
X170580476Y-79598857D01*
X170628095Y-79503619D01*
X170675714Y-79456000D01*
X170770952Y-79408381D01*
X171009048Y-79408381D01*
X171151905Y-79456000D01*
X171485238Y-79408381D02*
X171723333Y-80408381D01*
X171913810Y-79694095D01*
X172104286Y-80408381D01*
X172342381Y-79408381D01*
X173247143Y-80408381D02*
X172675714Y-80408381D01*
X172961428Y-80408381D02*
X172961428Y-79408381D01*
X172866190Y-79551238D01*
X172770952Y-79646476D01*
X172675714Y-79694095D01*
X173866190Y-79408381D02*
X173961429Y-79408381D01*
X174056667Y-79456000D01*
X174104286Y-79503619D01*
X174151905Y-79598857D01*
X174199524Y-79789333D01*
X174199524Y-80027429D01*
X174151905Y-80217905D01*
X174104286Y-80313143D01*
X174056667Y-80360762D01*
X173961429Y-80408381D01*
X173866190Y-80408381D01*
X173770952Y-80360762D01*
X173723333Y-80313143D01*
X173675714Y-80217905D01*
X173628095Y-80027429D01*
X173628095Y-79789333D01*
X173675714Y-79598857D01*
X173723333Y-79503619D01*
X173770952Y-79456000D01*
X173866190Y-79408381D01*
X170580476Y-114838762D02*
X170723333Y-114886381D01*
X170961429Y-114886381D01*
X171056667Y-114838762D01*
X171104286Y-114791143D01*
X171151905Y-114695905D01*
X171151905Y-114600667D01*
X171104286Y-114505429D01*
X171056667Y-114457810D01*
X170961429Y-114410190D01*
X170770952Y-114362571D01*
X170675714Y-114314952D01*
X170628095Y-114267333D01*
X170580476Y-114172095D01*
X170580476Y-114076857D01*
X170628095Y-113981619D01*
X170675714Y-113934000D01*
X170770952Y-113886381D01*
X171009048Y-113886381D01*
X171151905Y-113934000D01*
X171485238Y-113886381D02*
X171723333Y-114886381D01*
X171913810Y-114172095D01*
X172104286Y-114886381D01*
X172342381Y-113886381D01*
X173247143Y-114886381D02*
X172675714Y-114886381D01*
X172961428Y-114886381D02*
X172961428Y-113886381D01*
X172866190Y-114029238D01*
X172770952Y-114124476D01*
X172675714Y-114172095D01*
X174199524Y-114886381D02*
X173628095Y-114886381D01*
X173913809Y-114886381D02*
X173913809Y-113886381D01*
X173818571Y-114029238D01*
X173723333Y-114124476D01*
X173628095Y-114172095D01*
X170580476Y-149316762D02*
X170723333Y-149364381D01*
X170961429Y-149364381D01*
X171056667Y-149316762D01*
X171104286Y-149269143D01*
X171151905Y-149173905D01*
X171151905Y-149078667D01*
X171104286Y-148983429D01*
X171056667Y-148935810D01*
X170961429Y-148888190D01*
X170770952Y-148840571D01*
X170675714Y-148792952D01*
X170628095Y-148745333D01*
X170580476Y-148650095D01*
X170580476Y-148554857D01*
X170628095Y-148459619D01*
X170675714Y-148412000D01*
X170770952Y-148364381D01*
X171009048Y-148364381D01*
X171151905Y-148412000D01*
X171485238Y-148364381D02*
X171723333Y-149364381D01*
X171913810Y-148650095D01*
X172104286Y-149364381D01*
X172342381Y-148364381D01*
X173247143Y-149364381D02*
X172675714Y-149364381D01*
X172961428Y-149364381D02*
X172961428Y-148364381D01*
X172866190Y-148507238D01*
X172770952Y-148602476D01*
X172675714Y-148650095D01*
X173628095Y-148459619D02*
X173675714Y-148412000D01*
X173770952Y-148364381D01*
X174009048Y-148364381D01*
X174104286Y-148412000D01*
X174151905Y-148459619D01*
X174199524Y-148554857D01*
X174199524Y-148650095D01*
X174151905Y-148792952D01*
X173580476Y-149364381D01*
X174199524Y-149364381D01*
X205058476Y-45882762D02*
X205201333Y-45930381D01*
X205439429Y-45930381D01*
X205534667Y-45882762D01*
X205582286Y-45835143D01*
X205629905Y-45739905D01*
X205629905Y-45644667D01*
X205582286Y-45549429D01*
X205534667Y-45501810D01*
X205439429Y-45454190D01*
X205248952Y-45406571D01*
X205153714Y-45358952D01*
X205106095Y-45311333D01*
X205058476Y-45216095D01*
X205058476Y-45120857D01*
X205106095Y-45025619D01*
X205153714Y-44978000D01*
X205248952Y-44930381D01*
X205487048Y-44930381D01*
X205629905Y-44978000D01*
X205963238Y-44930381D02*
X206201333Y-45930381D01*
X206391810Y-45216095D01*
X206582286Y-45930381D01*
X206820381Y-44930381D01*
X207725143Y-45930381D02*
X207153714Y-45930381D01*
X207439428Y-45930381D02*
X207439428Y-44930381D01*
X207344190Y-45073238D01*
X207248952Y-45168476D01*
X207153714Y-45216095D01*
X208058476Y-44930381D02*
X208677524Y-44930381D01*
X208344190Y-45311333D01*
X208487048Y-45311333D01*
X208582286Y-45358952D01*
X208629905Y-45406571D01*
X208677524Y-45501810D01*
X208677524Y-45739905D01*
X208629905Y-45835143D01*
X208582286Y-45882762D01*
X208487048Y-45930381D01*
X208201333Y-45930381D01*
X208106095Y-45882762D01*
X208058476Y-45835143D01*
X205058476Y-80360762D02*
X205201333Y-80408381D01*
X205439429Y-80408381D01*
X205534667Y-80360762D01*
X205582286Y-80313143D01*
X205629905Y-80217905D01*
X205629905Y-80122667D01*
X205582286Y-80027429D01*
X205534667Y-79979810D01*
X205439429Y-79932190D01*
X205248952Y-79884571D01*
X205153714Y-79836952D01*
X205106095Y-79789333D01*
X205058476Y-79694095D01*
X205058476Y-79598857D01*
X205106095Y-79503619D01*
X205153714Y-79456000D01*
X205248952Y-79408381D01*
X205487048Y-79408381D01*
X205629905Y-79456000D01*
X205963238Y-79408381D02*
X206201333Y-80408381D01*
X206391810Y-79694095D01*
X206582286Y-80408381D01*
X206820381Y-79408381D01*
X207725143Y-80408381D02*
X207153714Y-80408381D01*
X207439428Y-80408381D02*
X207439428Y-79408381D01*
X207344190Y-79551238D01*
X207248952Y-79646476D01*
X207153714Y-79694095D01*
X208582286Y-79741714D02*
X208582286Y-80408381D01*
X208344190Y-79360762D02*
X208106095Y-80075048D01*
X208725143Y-80075048D01*
X205058476Y-114838762D02*
X205201333Y-114886381D01*
X205439429Y-114886381D01*
X205534667Y-114838762D01*
X205582286Y-114791143D01*
X205629905Y-114695905D01*
X205629905Y-114600667D01*
X205582286Y-114505429D01*
X205534667Y-114457810D01*
X205439429Y-114410190D01*
X205248952Y-114362571D01*
X205153714Y-114314952D01*
X205106095Y-114267333D01*
X205058476Y-114172095D01*
X205058476Y-114076857D01*
X205106095Y-113981619D01*
X205153714Y-113934000D01*
X205248952Y-113886381D01*
X205487048Y-113886381D01*
X205629905Y-113934000D01*
X205963238Y-113886381D02*
X206201333Y-114886381D01*
X206391810Y-114172095D01*
X206582286Y-114886381D01*
X206820381Y-113886381D01*
X207725143Y-114886381D02*
X207153714Y-114886381D01*
X207439428Y-114886381D02*
X207439428Y-113886381D01*
X207344190Y-114029238D01*
X207248952Y-114124476D01*
X207153714Y-114172095D01*
X208629905Y-113886381D02*
X208153714Y-113886381D01*
X208106095Y-114362571D01*
X208153714Y-114314952D01*
X208248952Y-114267333D01*
X208487048Y-114267333D01*
X208582286Y-114314952D01*
X208629905Y-114362571D01*
X208677524Y-114457810D01*
X208677524Y-114695905D01*
X208629905Y-114791143D01*
X208582286Y-114838762D01*
X208487048Y-114886381D01*
X208248952Y-114886381D01*
X208153714Y-114838762D01*
X208106095Y-114791143D01*
X205058476Y-149316762D02*
X205201333Y-149364381D01*
X205439429Y-149364381D01*
X205534667Y-149316762D01*
X205582286Y-149269143D01*
X205629905Y-149173905D01*
X205629905Y-149078667D01*
X205582286Y-148983429D01*
X205534667Y-148935810D01*
X205439429Y-148888190D01*
X205248952Y-148840571D01*
X205153714Y-148792952D01*
X205106095Y-148745333D01*
X205058476Y-148650095D01*
X205058476Y-148554857D01*
X205106095Y-148459619D01*
X205153714Y-148412000D01*
X205248952Y-148364381D01*
X205487048Y-148364381D01*
X205629905Y-148412000D01*
X205963238Y-148364381D02*
X206201333Y-149364381D01*
X206391810Y-148650095D01*
X206582286Y-149364381D01*
X206820381Y-148364381D01*
X207725143Y-149364381D02*
X207153714Y-149364381D01*
X207439428Y-149364381D02*
X207439428Y-148364381D01*
X207344190Y-148507238D01*
X207248952Y-148602476D01*
X207153714Y-148650095D01*
X208582286Y-148364381D02*
X208391809Y-148364381D01*
X208296571Y-148412000D01*
X208248952Y-148459619D01*
X208153714Y-148602476D01*
X208106095Y-148792952D01*
X208106095Y-149173905D01*
X208153714Y-149269143D01*
X208201333Y-149316762D01*
X208296571Y-149364381D01*
X208487048Y-149364381D01*
X208582286Y-149316762D01*
X208629905Y-149269143D01*
X208677524Y-149173905D01*
X208677524Y-148935810D01*
X208629905Y-148840571D01*
X208582286Y-148792952D01*
X208487048Y-148745333D01*
X208296571Y-148745333D01*
X208201333Y-148792952D01*
X208153714Y-148840571D01*
X208106095Y-148935810D01*
M02*
