G04 #@! TF.FileFunction,Copper,L1,Top,Signal*
%FSLAX46Y46*%
G04 Gerber Fmt 4.6, Leading zero omitted, Abs format (unit mm)*
G04 Created by KiCad (PCBNEW 4.0.6) date Sunday, June 10, 2018 'PMt' 08:16:35 PM*
%MOMM*%
%LPD*%
G01*
G04 APERTURE LIST*
%ADD10C,0.100000*%
%ADD11C,0.300000*%
%ADD12C,5.000000*%
%ADD13O,2.641600X1.320800*%
%ADD14R,1.700000X1.700000*%
%ADD15O,1.700000X1.700000*%
%ADD16C,0.600000*%
%ADD17C,0.250000*%
%ADD18C,0.254000*%
G04 APERTURE END LIST*
D10*
D11*
X94535714Y-61128571D02*
X94535714Y-59628571D01*
X94535714Y-60200000D02*
X94678571Y-60128571D01*
X94964285Y-60128571D01*
X95107142Y-60200000D01*
X95178571Y-60271429D01*
X95250000Y-60414286D01*
X95250000Y-60842857D01*
X95178571Y-60985714D01*
X95107142Y-61057143D01*
X94964285Y-61128571D01*
X94678571Y-61128571D01*
X94535714Y-61057143D01*
X95750000Y-60128571D02*
X96107143Y-61128571D01*
X96464285Y-60128571D02*
X96107143Y-61128571D01*
X95964285Y-61485714D01*
X95892857Y-61557143D01*
X95750000Y-61628571D01*
X98178571Y-61128571D02*
X98178571Y-59628571D01*
X99035714Y-61128571D01*
X99035714Y-59628571D01*
X100321428Y-61057143D02*
X100178571Y-61128571D01*
X99892857Y-61128571D01*
X99750000Y-61057143D01*
X99678571Y-60914286D01*
X99678571Y-60342857D01*
X99750000Y-60200000D01*
X99892857Y-60128571D01*
X100178571Y-60128571D01*
X100321428Y-60200000D01*
X100392857Y-60342857D01*
X100392857Y-60485714D01*
X99678571Y-60628571D01*
X101035714Y-61128571D02*
X101035714Y-60128571D01*
X101035714Y-60414286D02*
X101107142Y-60271429D01*
X101178571Y-60200000D01*
X101321428Y-60128571D01*
X101464285Y-60128571D01*
X102607142Y-61128571D02*
X102607142Y-59628571D01*
X102607142Y-61057143D02*
X102464285Y-61128571D01*
X102178571Y-61128571D01*
X102035713Y-61057143D01*
X101964285Y-60985714D01*
X101892856Y-60842857D01*
X101892856Y-60414286D01*
X101964285Y-60271429D01*
X102035713Y-60200000D01*
X102178571Y-60128571D01*
X102464285Y-60128571D01*
X102607142Y-60200000D01*
X104464285Y-61128571D02*
X104464285Y-59628571D01*
X104964285Y-60700000D01*
X105464285Y-59628571D01*
X105464285Y-61128571D01*
X106821428Y-60128571D02*
X106821428Y-61128571D01*
X106178571Y-60128571D02*
X106178571Y-60914286D01*
X106249999Y-61057143D01*
X106392857Y-61128571D01*
X106607142Y-61128571D01*
X106749999Y-61057143D01*
X106821428Y-60985714D01*
X107464285Y-61057143D02*
X107607142Y-61128571D01*
X107892857Y-61128571D01*
X108035714Y-61057143D01*
X108107142Y-60914286D01*
X108107142Y-60842857D01*
X108035714Y-60700000D01*
X107892857Y-60628571D01*
X107678571Y-60628571D01*
X107535714Y-60557143D01*
X107464285Y-60414286D01*
X107464285Y-60342857D01*
X107535714Y-60200000D01*
X107678571Y-60128571D01*
X107892857Y-60128571D01*
X108035714Y-60200000D01*
X108750000Y-61128571D02*
X108750000Y-60128571D01*
X108750000Y-59628571D02*
X108678571Y-59700000D01*
X108750000Y-59771429D01*
X108821428Y-59700000D01*
X108750000Y-59628571D01*
X108750000Y-59771429D01*
X110107143Y-61057143D02*
X109964286Y-61128571D01*
X109678572Y-61128571D01*
X109535714Y-61057143D01*
X109464286Y-60985714D01*
X109392857Y-60842857D01*
X109392857Y-60414286D01*
X109464286Y-60271429D01*
X109535714Y-60200000D01*
X109678572Y-60128571D01*
X109964286Y-60128571D01*
X110107143Y-60200000D01*
X110750000Y-61128571D02*
X110750000Y-60128571D01*
X110750000Y-59628571D02*
X110678571Y-59700000D01*
X110750000Y-59771429D01*
X110821428Y-59700000D01*
X110750000Y-59628571D01*
X110750000Y-59771429D01*
X112107143Y-61128571D02*
X112107143Y-60342857D01*
X112035714Y-60200000D01*
X111892857Y-60128571D01*
X111607143Y-60128571D01*
X111464286Y-60200000D01*
X112107143Y-61057143D02*
X111964286Y-61128571D01*
X111607143Y-61128571D01*
X111464286Y-61057143D01*
X111392857Y-60914286D01*
X111392857Y-60771429D01*
X111464286Y-60628571D01*
X111607143Y-60557143D01*
X111964286Y-60557143D01*
X112107143Y-60485714D01*
X112821429Y-60128571D02*
X112821429Y-61128571D01*
X112821429Y-60271429D02*
X112892857Y-60200000D01*
X113035715Y-60128571D01*
X113250000Y-60128571D01*
X113392857Y-60200000D01*
X113464286Y-60342857D01*
X113464286Y-61128571D01*
X96000000Y-62250000D02*
X95857143Y-62178571D01*
X95642857Y-62178571D01*
X95428572Y-62250000D01*
X95285714Y-62392857D01*
X95214286Y-62535714D01*
X95142857Y-62821429D01*
X95142857Y-63035714D01*
X95214286Y-63321429D01*
X95285714Y-63464286D01*
X95428572Y-63607143D01*
X95642857Y-63678571D01*
X95785714Y-63678571D01*
X96000000Y-63607143D01*
X96071429Y-63535714D01*
X96071429Y-63035714D01*
X95785714Y-63035714D01*
X97357143Y-62678571D02*
X97357143Y-63678571D01*
X96714286Y-62678571D02*
X96714286Y-63464286D01*
X96785714Y-63607143D01*
X96928572Y-63678571D01*
X97142857Y-63678571D01*
X97285714Y-63607143D01*
X97357143Y-63535714D01*
X98000000Y-63607143D02*
X98142857Y-63678571D01*
X98428572Y-63678571D01*
X98571429Y-63607143D01*
X98642857Y-63464286D01*
X98642857Y-63392857D01*
X98571429Y-63250000D01*
X98428572Y-63178571D01*
X98214286Y-63178571D01*
X98071429Y-63107143D01*
X98000000Y-62964286D01*
X98000000Y-62892857D01*
X98071429Y-62750000D01*
X98214286Y-62678571D01*
X98428572Y-62678571D01*
X98571429Y-62750000D01*
X99071429Y-62678571D02*
X99642858Y-62678571D01*
X99285715Y-62178571D02*
X99285715Y-63464286D01*
X99357143Y-63607143D01*
X99500001Y-63678571D01*
X99642858Y-63678571D01*
X100785715Y-63678571D02*
X100785715Y-62892857D01*
X100714286Y-62750000D01*
X100571429Y-62678571D01*
X100285715Y-62678571D01*
X100142858Y-62750000D01*
X100785715Y-63607143D02*
X100642858Y-63678571D01*
X100285715Y-63678571D01*
X100142858Y-63607143D01*
X100071429Y-63464286D01*
X100071429Y-63321429D01*
X100142858Y-63178571D01*
X100285715Y-63107143D01*
X100642858Y-63107143D01*
X100785715Y-63035714D01*
X101357144Y-62678571D02*
X101714287Y-63678571D01*
X102071429Y-62678571D01*
X102857144Y-63678571D02*
X102714286Y-63607143D01*
X102642858Y-63535714D01*
X102571429Y-63392857D01*
X102571429Y-62964286D01*
X102642858Y-62821429D01*
X102714286Y-62750000D01*
X102857144Y-62678571D01*
X103071429Y-62678571D01*
X103214286Y-62750000D01*
X103285715Y-62821429D01*
X103357144Y-62964286D01*
X103357144Y-63392857D01*
X103285715Y-63535714D01*
X103214286Y-63607143D01*
X103071429Y-63678571D01*
X102857144Y-63678571D01*
X105071429Y-63607143D02*
X105285715Y-63678571D01*
X105642858Y-63678571D01*
X105785715Y-63607143D01*
X105857144Y-63535714D01*
X105928572Y-63392857D01*
X105928572Y-63250000D01*
X105857144Y-63107143D01*
X105785715Y-63035714D01*
X105642858Y-62964286D01*
X105357144Y-62892857D01*
X105214286Y-62821429D01*
X105142858Y-62750000D01*
X105071429Y-62607143D01*
X105071429Y-62464286D01*
X105142858Y-62321429D01*
X105214286Y-62250000D01*
X105357144Y-62178571D01*
X105714286Y-62178571D01*
X105928572Y-62250000D01*
X106571429Y-63678571D02*
X106571429Y-62678571D01*
X106571429Y-62178571D02*
X106500000Y-62250000D01*
X106571429Y-62321429D01*
X106642857Y-62250000D01*
X106571429Y-62178571D01*
X106571429Y-62321429D01*
X107500001Y-63678571D02*
X107357143Y-63607143D01*
X107285715Y-63464286D01*
X107285715Y-62178571D01*
X107928572Y-62678571D02*
X108285715Y-63678571D01*
X108642857Y-62678571D01*
X109785714Y-63607143D02*
X109642857Y-63678571D01*
X109357143Y-63678571D01*
X109214286Y-63607143D01*
X109142857Y-63464286D01*
X109142857Y-62892857D01*
X109214286Y-62750000D01*
X109357143Y-62678571D01*
X109642857Y-62678571D01*
X109785714Y-62750000D01*
X109857143Y-62892857D01*
X109857143Y-63035714D01*
X109142857Y-63178571D01*
X110500000Y-63678571D02*
X110500000Y-62678571D01*
X110500000Y-62178571D02*
X110428571Y-62250000D01*
X110500000Y-62321429D01*
X110571428Y-62250000D01*
X110500000Y-62178571D01*
X110500000Y-62321429D01*
X111214286Y-63678571D02*
X111214286Y-62678571D01*
X111214286Y-62964286D02*
X111285714Y-62821429D01*
X111357143Y-62750000D01*
X111500000Y-62678571D01*
X111642857Y-62678571D01*
X112785714Y-63678571D02*
X112785714Y-62892857D01*
X112714285Y-62750000D01*
X112571428Y-62678571D01*
X112285714Y-62678571D01*
X112142857Y-62750000D01*
X112785714Y-63607143D02*
X112642857Y-63678571D01*
X112285714Y-63678571D01*
X112142857Y-63607143D01*
X112071428Y-63464286D01*
X112071428Y-63321429D01*
X112142857Y-63178571D01*
X112285714Y-63107143D01*
X112642857Y-63107143D01*
X112785714Y-63035714D01*
X92392857Y-65228571D02*
X92678571Y-66228571D01*
X92964285Y-65514286D01*
X93250000Y-66228571D01*
X93535714Y-65228571D01*
X93964286Y-65228571D02*
X94250000Y-66228571D01*
X94535714Y-65514286D01*
X94821429Y-66228571D01*
X95107143Y-65228571D01*
X95535715Y-65228571D02*
X95821429Y-66228571D01*
X96107143Y-65514286D01*
X96392858Y-66228571D01*
X96678572Y-65228571D01*
X97250001Y-66085714D02*
X97321429Y-66157143D01*
X97250001Y-66228571D01*
X97178572Y-66157143D01*
X97250001Y-66085714D01*
X97250001Y-66228571D01*
X97964287Y-66228571D02*
X97964287Y-65228571D01*
X97964287Y-65371429D02*
X98035715Y-65300000D01*
X98178573Y-65228571D01*
X98392858Y-65228571D01*
X98535715Y-65300000D01*
X98607144Y-65442857D01*
X98607144Y-66228571D01*
X98607144Y-65442857D02*
X98678573Y-65300000D01*
X98821430Y-65228571D01*
X99035715Y-65228571D01*
X99178573Y-65300000D01*
X99250001Y-65442857D01*
X99250001Y-66228571D01*
X100607144Y-65228571D02*
X100607144Y-66228571D01*
X99964287Y-65228571D02*
X99964287Y-66014286D01*
X100035715Y-66157143D01*
X100178573Y-66228571D01*
X100392858Y-66228571D01*
X100535715Y-66157143D01*
X100607144Y-66085714D01*
X101250001Y-66157143D02*
X101392858Y-66228571D01*
X101678573Y-66228571D01*
X101821430Y-66157143D01*
X101892858Y-66014286D01*
X101892858Y-65942857D01*
X101821430Y-65800000D01*
X101678573Y-65728571D01*
X101464287Y-65728571D01*
X101321430Y-65657143D01*
X101250001Y-65514286D01*
X101250001Y-65442857D01*
X101321430Y-65300000D01*
X101464287Y-65228571D01*
X101678573Y-65228571D01*
X101821430Y-65300000D01*
X102535716Y-66228571D02*
X102535716Y-65228571D01*
X102535716Y-64728571D02*
X102464287Y-64800000D01*
X102535716Y-64871429D01*
X102607144Y-64800000D01*
X102535716Y-64728571D01*
X102535716Y-64871429D01*
X103892859Y-66157143D02*
X103750002Y-66228571D01*
X103464288Y-66228571D01*
X103321430Y-66157143D01*
X103250002Y-66085714D01*
X103178573Y-65942857D01*
X103178573Y-65514286D01*
X103250002Y-65371429D01*
X103321430Y-65300000D01*
X103464288Y-65228571D01*
X103750002Y-65228571D01*
X103892859Y-65300000D01*
X104750002Y-66228571D02*
X104607144Y-66157143D01*
X104535716Y-66085714D01*
X104464287Y-65942857D01*
X104464287Y-65514286D01*
X104535716Y-65371429D01*
X104607144Y-65300000D01*
X104750002Y-65228571D01*
X104964287Y-65228571D01*
X105107144Y-65300000D01*
X105178573Y-65371429D01*
X105250002Y-65514286D01*
X105250002Y-65942857D01*
X105178573Y-66085714D01*
X105107144Y-66157143D01*
X104964287Y-66228571D01*
X104750002Y-66228571D01*
X105892859Y-65228571D02*
X105892859Y-66228571D01*
X105892859Y-65371429D02*
X105964287Y-65300000D01*
X106107145Y-65228571D01*
X106321430Y-65228571D01*
X106464287Y-65300000D01*
X106535716Y-65442857D01*
X106535716Y-66228571D01*
X107821430Y-66157143D02*
X107678573Y-66228571D01*
X107392859Y-66228571D01*
X107250002Y-66157143D01*
X107178573Y-66014286D01*
X107178573Y-65442857D01*
X107250002Y-65300000D01*
X107392859Y-65228571D01*
X107678573Y-65228571D01*
X107821430Y-65300000D01*
X107892859Y-65442857D01*
X107892859Y-65585714D01*
X107178573Y-65728571D01*
X108535716Y-66228571D02*
X108535716Y-65228571D01*
X108535716Y-65514286D02*
X108607144Y-65371429D01*
X108678573Y-65300000D01*
X108821430Y-65228571D01*
X108964287Y-65228571D01*
X110107144Y-66228571D02*
X110107144Y-64728571D01*
X110107144Y-66157143D02*
X109964287Y-66228571D01*
X109678573Y-66228571D01*
X109535715Y-66157143D01*
X109464287Y-66085714D01*
X109392858Y-65942857D01*
X109392858Y-65514286D01*
X109464287Y-65371429D01*
X109535715Y-65300000D01*
X109678573Y-65228571D01*
X109964287Y-65228571D01*
X110107144Y-65300000D01*
X110821430Y-66085714D02*
X110892858Y-66157143D01*
X110821430Y-66228571D01*
X110750001Y-66157143D01*
X110821430Y-66085714D01*
X110821430Y-66228571D01*
X112178573Y-66157143D02*
X112035716Y-66228571D01*
X111750002Y-66228571D01*
X111607144Y-66157143D01*
X111535716Y-66085714D01*
X111464287Y-65942857D01*
X111464287Y-65514286D01*
X111535716Y-65371429D01*
X111607144Y-65300000D01*
X111750002Y-65228571D01*
X112035716Y-65228571D01*
X112178573Y-65300000D01*
X113035716Y-66228571D02*
X112892858Y-66157143D01*
X112821430Y-66085714D01*
X112750001Y-65942857D01*
X112750001Y-65514286D01*
X112821430Y-65371429D01*
X112892858Y-65300000D01*
X113035716Y-65228571D01*
X113250001Y-65228571D01*
X113392858Y-65300000D01*
X113464287Y-65371429D01*
X113535716Y-65514286D01*
X113535716Y-65942857D01*
X113464287Y-66085714D01*
X113392858Y-66157143D01*
X113250001Y-66228571D01*
X113035716Y-66228571D01*
X114178573Y-66228571D02*
X114178573Y-65228571D01*
X114178573Y-65371429D02*
X114250001Y-65300000D01*
X114392859Y-65228571D01*
X114607144Y-65228571D01*
X114750001Y-65300000D01*
X114821430Y-65442857D01*
X114821430Y-66228571D01*
X114821430Y-65442857D02*
X114892859Y-65300000D01*
X115035716Y-65228571D01*
X115250001Y-65228571D01*
X115392859Y-65300000D01*
X115464287Y-65442857D01*
X115464287Y-66228571D01*
D12*
X135912000Y-72956000D03*
X142112000Y-72456000D03*
X170390000Y-38478000D03*
X176590000Y-37978000D03*
D13*
X162620000Y-75530000D03*
X162620000Y-78070000D03*
X162620000Y-80610000D03*
X162620000Y-83150000D03*
X162620000Y-85690000D03*
X162620000Y-88230000D03*
X162620000Y-90770000D03*
X162620000Y-93310000D03*
X162620000Y-95850000D03*
X162620000Y-98390000D03*
X162620000Y-100930000D03*
X162620000Y-103470000D03*
X147380000Y-103470000D03*
X147380000Y-100930000D03*
X147380000Y-98390000D03*
X147380000Y-95850000D03*
X147380000Y-93310000D03*
X147380000Y-90770000D03*
X147380000Y-88230000D03*
X147380000Y-85690000D03*
X147380000Y-83150000D03*
X147380000Y-80610000D03*
X147380000Y-78070000D03*
X147380000Y-75530000D03*
D12*
X101434000Y-38478000D03*
X107634000Y-37978000D03*
X101434000Y-72956000D03*
X107634000Y-72456000D03*
X101434000Y-107434000D03*
X107634000Y-106934000D03*
X101434000Y-141912000D03*
X107634000Y-141412000D03*
X135912000Y-38478000D03*
X142112000Y-37978000D03*
X135912000Y-107434000D03*
X142112000Y-106934000D03*
X135912000Y-141912000D03*
X142112000Y-141412000D03*
X170390000Y-72956000D03*
X176590000Y-72456000D03*
X170390000Y-107434000D03*
X176590000Y-106934000D03*
X170390000Y-141912000D03*
X176590000Y-141412000D03*
X204868000Y-38478000D03*
X211068000Y-37978000D03*
X204868000Y-72956000D03*
X211068000Y-72456000D03*
X204868000Y-107434000D03*
X211068000Y-106934000D03*
X204868000Y-141912000D03*
X211068000Y-141412000D03*
D14*
X87000000Y-90000000D03*
D15*
X89540000Y-90000000D03*
X87000000Y-87460000D03*
X89540000Y-87460000D03*
X87000000Y-84920000D03*
X89540000Y-84920000D03*
X87000000Y-82380000D03*
X89540000Y-82380000D03*
D16*
X156020000Y-80280000D03*
X157000000Y-112550000D03*
X150330000Y-112640000D03*
X136790000Y-100190000D03*
X114530000Y-92090000D03*
X115900000Y-93880000D03*
X150260000Y-108570000D03*
X157850000Y-96550000D03*
X157010000Y-108570000D03*
X108630000Y-79740000D03*
X106730000Y-79570000D03*
X156440000Y-100580000D03*
X154530000Y-77420000D03*
X152130000Y-75360000D03*
X116280000Y-90640000D03*
X117650000Y-91860000D03*
X140760000Y-101370000D03*
X115020000Y-91140000D03*
X116590000Y-93040000D03*
X138920000Y-102430000D03*
X145880000Y-67030000D03*
X109880000Y-88990000D03*
X114680000Y-84190000D03*
D17*
X87000000Y-87460000D02*
X86100000Y-87460000D01*
X155600000Y-80700000D02*
X156020000Y-80280000D01*
X155600000Y-101200000D02*
X155600000Y-80700000D01*
X155930000Y-101530000D02*
X155600000Y-101200000D01*
X155930000Y-111480000D02*
X155930000Y-101530000D01*
X157000000Y-112550000D02*
X155930000Y-111480000D01*
X98800000Y-112640000D02*
X150330000Y-112640000D01*
X94620000Y-108460000D02*
X98800000Y-112640000D01*
X94620000Y-101040000D02*
X94620000Y-108460000D01*
X85160000Y-91580000D02*
X94620000Y-101040000D01*
X85160000Y-88400000D02*
X85160000Y-91580000D01*
X86100000Y-87460000D02*
X85160000Y-88400000D01*
X142112000Y-37978000D02*
X145958000Y-37978000D01*
X145958000Y-37978000D02*
X153240000Y-45260000D01*
X150980000Y-77970000D02*
X147380000Y-77970000D01*
X153240000Y-75710000D02*
X150980000Y-77970000D01*
X153240000Y-45260000D02*
X153240000Y-75710000D01*
X112372000Y-33240000D02*
X107634000Y-37978000D01*
X144660000Y-33240000D02*
X112372000Y-33240000D01*
X153690002Y-42270002D02*
X144660000Y-33240000D01*
X153690002Y-80420002D02*
X153690002Y-42270002D01*
X147380000Y-80510000D02*
X153780000Y-80510000D01*
X153780000Y-80510000D02*
X153690002Y-80420002D01*
X142112000Y-72456000D02*
X142112000Y-82628000D01*
X142112000Y-82628000D02*
X142534000Y-83050000D01*
X142534000Y-83050000D02*
X147380000Y-83050000D01*
X115180000Y-85590000D02*
X115270000Y-85590000D01*
X143640000Y-85690000D02*
X147380000Y-85690000D01*
X137010000Y-79060000D02*
X143640000Y-85690000D01*
X121800000Y-79060000D02*
X137010000Y-79060000D01*
X115270000Y-85590000D02*
X121800000Y-79060000D01*
X107634000Y-72456000D02*
X107634000Y-81324000D01*
X107634000Y-81324000D02*
X111900000Y-85590000D01*
X111900000Y-85590000D02*
X115180000Y-85590000D01*
X117200000Y-90910000D02*
X118570000Y-90910000D01*
X131560000Y-93610000D02*
X137040000Y-88130000D01*
X121270000Y-93610000D02*
X131560000Y-93610000D01*
X118570000Y-90910000D02*
X121270000Y-93610000D01*
X137040000Y-88130000D02*
X137040000Y-88190000D01*
X137040000Y-88190000D02*
X137040000Y-88130000D01*
X107634000Y-106934000D02*
X107634000Y-100476000D01*
X107634000Y-100476000D02*
X117200000Y-90910000D01*
X137040000Y-88130000D02*
X147380000Y-88130000D01*
X136790000Y-100190000D02*
X146210000Y-90770000D01*
X146210000Y-90770000D02*
X147380000Y-90770000D01*
X111872000Y-145650000D02*
X107634000Y-141412000D01*
X145980000Y-145650000D02*
X111872000Y-145650000D01*
X152010002Y-139619998D02*
X145980000Y-145650000D01*
X152010002Y-94690002D02*
X152010002Y-139619998D01*
X147380000Y-93210000D02*
X150530000Y-93210000D01*
X150530000Y-93210000D02*
X152010002Y-94690002D01*
X142112000Y-141412000D02*
X142868000Y-141412000D01*
X142868000Y-141412000D02*
X151560000Y-132720000D01*
X151560000Y-132720000D02*
X151560000Y-97500000D01*
X151560000Y-97500000D02*
X149810000Y-95750000D01*
X149810000Y-95750000D02*
X147380000Y-95750000D01*
X109900000Y-87460000D02*
X114530000Y-92090000D01*
X115900000Y-93880000D02*
X124290004Y-102270004D01*
X124290004Y-102270004D02*
X136580004Y-102270004D01*
X136580004Y-102270004D02*
X137630000Y-103320000D01*
X137630000Y-103320000D02*
X143500000Y-103320000D01*
X143500000Y-103320000D02*
X148750000Y-108570000D01*
X148750000Y-108570000D02*
X150260000Y-108570000D01*
X89540000Y-87460000D02*
X109900000Y-87460000D01*
X157229998Y-97170002D02*
X157850000Y-96550000D01*
X157229998Y-108350002D02*
X157229998Y-97170002D01*
X157010000Y-108570000D02*
X157229998Y-108350002D01*
X89905000Y-87095000D02*
X89540000Y-87460000D01*
X131750000Y-73990000D02*
X131750000Y-74076398D01*
X115820000Y-84170000D02*
X114850002Y-85139998D01*
X115820000Y-83466398D02*
X115820000Y-84170000D01*
X122946396Y-76340002D02*
X115820000Y-83466398D01*
X129486396Y-76340002D02*
X122946396Y-76340002D01*
X131750000Y-74076398D02*
X129486396Y-76340002D01*
X108630000Y-79740000D02*
X108630000Y-81683602D01*
X108630000Y-81683602D02*
X112086396Y-85139998D01*
X112086396Y-85139998D02*
X114850002Y-85139998D01*
X87000000Y-84620000D02*
X85130000Y-82750000D01*
X106709998Y-79549998D02*
X106730000Y-79570000D01*
X87640002Y-79549998D02*
X106709998Y-79549998D01*
X85130000Y-82060000D02*
X87640002Y-79549998D01*
X85130000Y-82750000D02*
X85130000Y-82060000D01*
X156779996Y-100240004D02*
X156440000Y-100580000D01*
X156779996Y-79669996D02*
X156779996Y-100240004D01*
X154530000Y-77420000D02*
X156779996Y-79669996D01*
X152630000Y-74860000D02*
X152130000Y-75360000D01*
X152630000Y-69800002D02*
X152630000Y-74860000D01*
X150659998Y-67830000D02*
X152630000Y-69800002D01*
X134600000Y-67830000D02*
X150659998Y-67830000D01*
X131750000Y-70680000D02*
X134600000Y-67830000D01*
X131750000Y-73990000D02*
X131750000Y-70680000D01*
X87000000Y-84920000D02*
X87000000Y-84620000D01*
X87000000Y-84920000D02*
X86710000Y-84920000D01*
X87000000Y-81500000D02*
X88500000Y-80000000D01*
X88500000Y-80000000D02*
X105650000Y-80000000D01*
X105650000Y-80000000D02*
X116280000Y-90630000D01*
X116280000Y-90630000D02*
X116280000Y-90640000D01*
X117650000Y-91860000D02*
X127160000Y-101370000D01*
X127160000Y-101370000D02*
X140760000Y-101370000D01*
X87000000Y-82380000D02*
X87000000Y-81500000D01*
X109900000Y-84920000D02*
X115020000Y-90040000D01*
X115020000Y-90040000D02*
X115020000Y-91140000D01*
X116590000Y-93040000D02*
X117580000Y-94030000D01*
X117580000Y-94030000D02*
X119183602Y-94030000D01*
X119183602Y-94030000D02*
X126973604Y-101820002D01*
X126973604Y-101820002D02*
X138310002Y-101820002D01*
X138310002Y-101820002D02*
X138920000Y-102430000D01*
X109900000Y-84920000D02*
X89540000Y-84920000D01*
X159670000Y-95750000D02*
X162620000Y-95750000D01*
X157680000Y-97740000D02*
X159670000Y-95750000D01*
X157680000Y-118470000D02*
X157680000Y-97740000D01*
X176590000Y-141412000D02*
X176590000Y-137380000D01*
X176590000Y-137380000D02*
X157680000Y-118470000D01*
X162620000Y-93210000D02*
X165750000Y-93210000D01*
X165810000Y-93270000D02*
X165810000Y-117040000D01*
X165750000Y-93210000D02*
X165810000Y-93270000D01*
X196456000Y-126800000D02*
X211068000Y-141412000D01*
X175570000Y-126800000D02*
X196456000Y-126800000D01*
X165810000Y-117040000D02*
X175570000Y-126800000D01*
X162620000Y-90670000D02*
X169920000Y-90670000D01*
X169920000Y-90670000D02*
X176580000Y-97330000D01*
X176580000Y-97330000D02*
X176580000Y-106924000D01*
X176580000Y-106924000D02*
X176590000Y-106934000D01*
X201310000Y-88130000D02*
X162620000Y-88130000D01*
X211068000Y-106934000D02*
X211068000Y-97888000D01*
X211068000Y-97888000D02*
X201310000Y-88130000D01*
X205800000Y-85590000D02*
X162620000Y-85590000D01*
X211068000Y-72456000D02*
X211068000Y-80322000D01*
X211068000Y-80322000D02*
X205800000Y-85590000D01*
X162620000Y-83050000D02*
X170750000Y-83050000D01*
X170750000Y-83050000D02*
X176590000Y-77210000D01*
X176590000Y-77210000D02*
X176590000Y-72456000D01*
X162620000Y-80510000D02*
X161180000Y-80510000D01*
X161180000Y-80510000D02*
X155850000Y-75180000D01*
X206410000Y-33320000D02*
X211068000Y-37978000D01*
X166430000Y-33320000D02*
X206410000Y-33320000D01*
X155850000Y-43900000D02*
X166430000Y-33320000D01*
X155850000Y-75180000D02*
X155850000Y-43900000D01*
X164650000Y-77970000D02*
X162620000Y-77970000D01*
X165610000Y-77010000D02*
X164650000Y-77970000D01*
X165610000Y-69290000D02*
X165610000Y-77010000D01*
X176590000Y-37978000D02*
X176590000Y-58310000D01*
X176590000Y-58310000D02*
X165610000Y-69290000D01*
X114680000Y-84190000D02*
X114680000Y-83970000D01*
X129300000Y-75890000D02*
X131299998Y-73890002D01*
X122760000Y-75890000D02*
X129300000Y-75890000D01*
X114680000Y-83970000D02*
X122760000Y-75890000D01*
X145880000Y-67030000D02*
X145530002Y-67379998D01*
X145530002Y-67379998D02*
X134413604Y-67379998D01*
X134413604Y-67379998D02*
X131299998Y-70493604D01*
X131299998Y-70493604D02*
X131299998Y-73890002D01*
X108870000Y-90000000D02*
X89540000Y-90000000D01*
X109880000Y-88990000D02*
X108870000Y-90000000D01*
D18*
G36*
X214488338Y-32821046D02*
X214902333Y-33097669D01*
X215178953Y-33511660D01*
X215290000Y-34069931D01*
X215290000Y-145930069D01*
X215178953Y-146488340D01*
X214902333Y-146902331D01*
X214488338Y-147178954D01*
X213930069Y-147290000D01*
X86069931Y-147290000D01*
X85511660Y-147178953D01*
X85097669Y-146902333D01*
X84821046Y-146488338D01*
X84710000Y-145930069D01*
X84710000Y-144147880D01*
X99377725Y-144147880D01*
X99659421Y-144570564D01*
X100811892Y-145047294D01*
X102059072Y-145046705D01*
X103208579Y-144570564D01*
X103490275Y-144147880D01*
X101434000Y-142091605D01*
X99377725Y-144147880D01*
X84710000Y-144147880D01*
X84710000Y-141289892D01*
X98298706Y-141289892D01*
X98299295Y-142537072D01*
X98775436Y-143686579D01*
X99198120Y-143968275D01*
X101254395Y-141912000D01*
X99198120Y-139855725D01*
X98775436Y-140137421D01*
X98298706Y-141289892D01*
X84710000Y-141289892D01*
X84710000Y-139676120D01*
X99377725Y-139676120D01*
X101434000Y-141732395D01*
X103490275Y-139676120D01*
X103208579Y-139253436D01*
X102056108Y-138776706D01*
X100808928Y-138777295D01*
X99659421Y-139253436D01*
X99377725Y-139676120D01*
X84710000Y-139676120D01*
X84710000Y-92204802D01*
X93860000Y-101354802D01*
X93860000Y-108460000D01*
X93917852Y-108750839D01*
X94082599Y-108997401D01*
X98262599Y-113177401D01*
X98509161Y-113342148D01*
X98800000Y-113400000D01*
X149767537Y-113400000D01*
X149799673Y-113432192D01*
X150143201Y-113574838D01*
X150515167Y-113575162D01*
X150800000Y-113457472D01*
X150800000Y-132405198D01*
X144169519Y-139035679D01*
X143890153Y-138755826D01*
X142738326Y-138277546D01*
X141491146Y-138276457D01*
X140338485Y-138752727D01*
X139455826Y-139633847D01*
X138977546Y-140785674D01*
X138977255Y-141119260D01*
X138570564Y-140137421D01*
X138147880Y-139855725D01*
X136091605Y-141912000D01*
X138147880Y-143968275D01*
X138570564Y-143686579D01*
X139047294Y-142534108D01*
X139047138Y-142203915D01*
X139452727Y-143185515D01*
X140333847Y-144068174D01*
X141485674Y-144546454D01*
X142732854Y-144547543D01*
X143885515Y-144071273D01*
X144768174Y-143190153D01*
X145246454Y-142038326D01*
X145247543Y-140791146D01*
X145047587Y-140307215D01*
X151250002Y-134104800D01*
X151250002Y-139305196D01*
X145665198Y-144890000D01*
X136915392Y-144890000D01*
X137686579Y-144570564D01*
X137968275Y-144147880D01*
X135912000Y-142091605D01*
X133855725Y-144147880D01*
X134137421Y-144570564D01*
X134909642Y-144890000D01*
X112186802Y-144890000D01*
X110347910Y-143051108D01*
X110768454Y-142038326D01*
X110769107Y-141289892D01*
X132776706Y-141289892D01*
X132777295Y-142537072D01*
X133253436Y-143686579D01*
X133676120Y-143968275D01*
X135732395Y-141912000D01*
X133676120Y-139855725D01*
X133253436Y-140137421D01*
X132776706Y-141289892D01*
X110769107Y-141289892D01*
X110769543Y-140791146D01*
X110308824Y-139676120D01*
X133855725Y-139676120D01*
X135912000Y-141732395D01*
X137968275Y-139676120D01*
X137686579Y-139253436D01*
X136534108Y-138776706D01*
X135286928Y-138777295D01*
X134137421Y-139253436D01*
X133855725Y-139676120D01*
X110308824Y-139676120D01*
X110293273Y-139638485D01*
X109412153Y-138755826D01*
X108260326Y-138277546D01*
X107013146Y-138276457D01*
X105860485Y-138752727D01*
X104977826Y-139633847D01*
X104499546Y-140785674D01*
X104499255Y-141119260D01*
X104092564Y-140137421D01*
X103669880Y-139855725D01*
X101613605Y-141912000D01*
X103669880Y-143968275D01*
X104092564Y-143686579D01*
X104569294Y-142534108D01*
X104569138Y-142203915D01*
X104974727Y-143185515D01*
X105855847Y-144068174D01*
X107007674Y-144546454D01*
X108254854Y-144547543D01*
X109273744Y-144126546D01*
X111334599Y-146187401D01*
X111581161Y-146352148D01*
X111872000Y-146410000D01*
X145980000Y-146410000D01*
X146270839Y-146352148D01*
X146517401Y-146187401D01*
X148556922Y-144147880D01*
X168333725Y-144147880D01*
X168615421Y-144570564D01*
X169767892Y-145047294D01*
X171015072Y-145046705D01*
X172164579Y-144570564D01*
X172446275Y-144147880D01*
X170390000Y-142091605D01*
X168333725Y-144147880D01*
X148556922Y-144147880D01*
X151414910Y-141289892D01*
X167254706Y-141289892D01*
X167255295Y-142537072D01*
X167731436Y-143686579D01*
X168154120Y-143968275D01*
X170210395Y-141912000D01*
X168154120Y-139855725D01*
X167731436Y-140137421D01*
X167254706Y-141289892D01*
X151414910Y-141289892D01*
X152547403Y-140157399D01*
X152712150Y-139910837D01*
X152758838Y-139676120D01*
X168333725Y-139676120D01*
X170390000Y-141732395D01*
X172446275Y-139676120D01*
X172164579Y-139253436D01*
X171012108Y-138776706D01*
X169764928Y-138777295D01*
X168615421Y-139253436D01*
X168333725Y-139676120D01*
X152758838Y-139676120D01*
X152770002Y-139619998D01*
X152770002Y-94690002D01*
X152712150Y-94399163D01*
X152547403Y-94152601D01*
X151067401Y-92672599D01*
X150820839Y-92507852D01*
X150530000Y-92450000D01*
X149032111Y-92450000D01*
X148994702Y-92394014D01*
X148574444Y-92113206D01*
X148206411Y-92040000D01*
X148574444Y-91966794D01*
X148994702Y-91685986D01*
X149275510Y-91265728D01*
X149374116Y-90770000D01*
X149275510Y-90274272D01*
X148994702Y-89854014D01*
X148574444Y-89573206D01*
X148206411Y-89500000D01*
X148574444Y-89426794D01*
X148994702Y-89145986D01*
X149275510Y-88725728D01*
X149374116Y-88230000D01*
X149275510Y-87734272D01*
X148994702Y-87314014D01*
X148574444Y-87033206D01*
X148206411Y-86960000D01*
X148574444Y-86886794D01*
X148994702Y-86605986D01*
X149275510Y-86185728D01*
X149374116Y-85690000D01*
X149275510Y-85194272D01*
X148994702Y-84774014D01*
X148574444Y-84493206D01*
X148206411Y-84420000D01*
X148574444Y-84346794D01*
X148994702Y-84065986D01*
X149275510Y-83645728D01*
X149374116Y-83150000D01*
X149275510Y-82654272D01*
X148994702Y-82234014D01*
X148574444Y-81953206D01*
X148206411Y-81880000D01*
X148574444Y-81806794D01*
X148994702Y-81525986D01*
X149165747Y-81270000D01*
X153780000Y-81270000D01*
X154070839Y-81212148D01*
X154317401Y-81047401D01*
X154482148Y-80800839D01*
X154540000Y-80510000D01*
X154519942Y-80409161D01*
X154482148Y-80219160D01*
X154450002Y-80171050D01*
X154450002Y-78414804D01*
X155513010Y-79477812D01*
X155491057Y-79486883D01*
X155227808Y-79749673D01*
X155085162Y-80093201D01*
X155085121Y-80140077D01*
X155062599Y-80162599D01*
X154897852Y-80409161D01*
X154840000Y-80700000D01*
X154840000Y-101200000D01*
X154897852Y-101490839D01*
X155062599Y-101737401D01*
X155170000Y-101844802D01*
X155170000Y-111480000D01*
X155227852Y-111770839D01*
X155392599Y-112017401D01*
X156064878Y-112689680D01*
X156064838Y-112735167D01*
X156206883Y-113078943D01*
X156469673Y-113342192D01*
X156813201Y-113484838D01*
X156920000Y-113484931D01*
X156920000Y-118470000D01*
X156977852Y-118760839D01*
X157142599Y-119007401D01*
X175830000Y-137694802D01*
X175830000Y-138333951D01*
X174816485Y-138752727D01*
X173933826Y-139633847D01*
X173455546Y-140785674D01*
X173455255Y-141119260D01*
X173048564Y-140137421D01*
X172625880Y-139855725D01*
X170569605Y-141912000D01*
X172625880Y-143968275D01*
X173048564Y-143686579D01*
X173525294Y-142534108D01*
X173525138Y-142203915D01*
X173930727Y-143185515D01*
X174811847Y-144068174D01*
X175963674Y-144546454D01*
X177210854Y-144547543D01*
X178178111Y-144147880D01*
X202811725Y-144147880D01*
X203093421Y-144570564D01*
X204245892Y-145047294D01*
X205493072Y-145046705D01*
X206642579Y-144570564D01*
X206924275Y-144147880D01*
X204868000Y-142091605D01*
X202811725Y-144147880D01*
X178178111Y-144147880D01*
X178363515Y-144071273D01*
X179246174Y-143190153D01*
X179724454Y-142038326D01*
X179725107Y-141289892D01*
X201732706Y-141289892D01*
X201733295Y-142537072D01*
X202209436Y-143686579D01*
X202632120Y-143968275D01*
X204688395Y-141912000D01*
X202632120Y-139855725D01*
X202209436Y-140137421D01*
X201732706Y-141289892D01*
X179725107Y-141289892D01*
X179725543Y-140791146D01*
X179264824Y-139676120D01*
X202811725Y-139676120D01*
X204868000Y-141732395D01*
X206924275Y-139676120D01*
X206642579Y-139253436D01*
X205490108Y-138776706D01*
X204242928Y-138777295D01*
X203093421Y-139253436D01*
X202811725Y-139676120D01*
X179264824Y-139676120D01*
X179249273Y-139638485D01*
X178368153Y-138755826D01*
X177350000Y-138333052D01*
X177350000Y-137380000D01*
X177292148Y-137089161D01*
X177292148Y-137089160D01*
X177127401Y-136842599D01*
X158440000Y-118155198D01*
X158440000Y-103797105D01*
X160706180Y-103797105D01*
X160714205Y-103848396D01*
X160953811Y-104296184D01*
X161346539Y-104618193D01*
X161832600Y-104765400D01*
X162493000Y-104765400D01*
X162493000Y-103597000D01*
X162747000Y-103597000D01*
X162747000Y-104765400D01*
X163407400Y-104765400D01*
X163893461Y-104618193D01*
X164286189Y-104296184D01*
X164525795Y-103848396D01*
X164533820Y-103797105D01*
X164409933Y-103597000D01*
X162747000Y-103597000D01*
X162493000Y-103597000D01*
X160830067Y-103597000D01*
X160706180Y-103797105D01*
X158440000Y-103797105D01*
X158440000Y-98054802D01*
X159984802Y-96510000D01*
X160834253Y-96510000D01*
X161005298Y-96765986D01*
X161425556Y-97046794D01*
X161793589Y-97120000D01*
X161425556Y-97193206D01*
X161005298Y-97474014D01*
X160724490Y-97894272D01*
X160625884Y-98390000D01*
X160724490Y-98885728D01*
X161005298Y-99305986D01*
X161425556Y-99586794D01*
X161793589Y-99660000D01*
X161425556Y-99733206D01*
X161005298Y-100014014D01*
X160724490Y-100434272D01*
X160625884Y-100930000D01*
X160724490Y-101425728D01*
X161005298Y-101845986D01*
X161425556Y-102126794D01*
X161766514Y-102194615D01*
X161346539Y-102321807D01*
X160953811Y-102643816D01*
X160714205Y-103091604D01*
X160706180Y-103142895D01*
X160830067Y-103343000D01*
X162493000Y-103343000D01*
X162493000Y-103323000D01*
X162747000Y-103323000D01*
X162747000Y-103343000D01*
X164409933Y-103343000D01*
X164533820Y-103142895D01*
X164525795Y-103091604D01*
X164286189Y-102643816D01*
X163893461Y-102321807D01*
X163473486Y-102194615D01*
X163814444Y-102126794D01*
X164234702Y-101845986D01*
X164515510Y-101425728D01*
X164614116Y-100930000D01*
X164515510Y-100434272D01*
X164234702Y-100014014D01*
X163814444Y-99733206D01*
X163446411Y-99660000D01*
X163814444Y-99586794D01*
X164234702Y-99305986D01*
X164515510Y-98885728D01*
X164614116Y-98390000D01*
X164515510Y-97894272D01*
X164234702Y-97474014D01*
X163814444Y-97193206D01*
X163446411Y-97120000D01*
X163814444Y-97046794D01*
X164234702Y-96765986D01*
X164515510Y-96345728D01*
X164614116Y-95850000D01*
X164515510Y-95354272D01*
X164234702Y-94934014D01*
X163814444Y-94653206D01*
X163446411Y-94580000D01*
X163814444Y-94506794D01*
X164234702Y-94225986D01*
X164405747Y-93970000D01*
X165050000Y-93970000D01*
X165050000Y-117040000D01*
X165107852Y-117330839D01*
X165272599Y-117577401D01*
X175032599Y-127337401D01*
X175279160Y-127502148D01*
X175570000Y-127560000D01*
X196141198Y-127560000D01*
X208354090Y-139772892D01*
X207933546Y-140785674D01*
X207933255Y-141119260D01*
X207526564Y-140137421D01*
X207103880Y-139855725D01*
X205047605Y-141912000D01*
X207103880Y-143968275D01*
X207526564Y-143686579D01*
X208003294Y-142534108D01*
X208003138Y-142203915D01*
X208408727Y-143185515D01*
X209289847Y-144068174D01*
X210441674Y-144546454D01*
X211688854Y-144547543D01*
X212841515Y-144071273D01*
X213724174Y-143190153D01*
X214202454Y-142038326D01*
X214203543Y-140791146D01*
X213727273Y-139638485D01*
X212846153Y-138755826D01*
X211694326Y-138277546D01*
X210447146Y-138276457D01*
X209428256Y-138697454D01*
X196993401Y-126262599D01*
X196746839Y-126097852D01*
X196456000Y-126040000D01*
X175884802Y-126040000D01*
X166570000Y-116725198D01*
X166570000Y-109669880D01*
X168333725Y-109669880D01*
X168615421Y-110092564D01*
X169767892Y-110569294D01*
X171015072Y-110568705D01*
X172164579Y-110092564D01*
X172446275Y-109669880D01*
X170390000Y-107613605D01*
X168333725Y-109669880D01*
X166570000Y-109669880D01*
X166570000Y-106811892D01*
X167254706Y-106811892D01*
X167255295Y-108059072D01*
X167731436Y-109208579D01*
X168154120Y-109490275D01*
X170210395Y-107434000D01*
X168154120Y-105377725D01*
X167731436Y-105659421D01*
X167254706Y-106811892D01*
X166570000Y-106811892D01*
X166570000Y-105198120D01*
X168333725Y-105198120D01*
X170390000Y-107254395D01*
X172446275Y-105198120D01*
X172164579Y-104775436D01*
X171012108Y-104298706D01*
X169764928Y-104299295D01*
X168615421Y-104775436D01*
X168333725Y-105198120D01*
X166570000Y-105198120D01*
X166570000Y-93270000D01*
X166512148Y-92979161D01*
X166347401Y-92732599D01*
X166287401Y-92672599D01*
X166040839Y-92507852D01*
X165750000Y-92450000D01*
X164272111Y-92450000D01*
X164234702Y-92394014D01*
X163814444Y-92113206D01*
X163446411Y-92040000D01*
X163814444Y-91966794D01*
X164234702Y-91685986D01*
X164405747Y-91430000D01*
X169605198Y-91430000D01*
X175820000Y-97644802D01*
X175820000Y-103860083D01*
X174816485Y-104274727D01*
X173933826Y-105155847D01*
X173455546Y-106307674D01*
X173455255Y-106641260D01*
X173048564Y-105659421D01*
X172625880Y-105377725D01*
X170569605Y-107434000D01*
X172625880Y-109490275D01*
X173048564Y-109208579D01*
X173525294Y-108056108D01*
X173525138Y-107725915D01*
X173930727Y-108707515D01*
X174811847Y-109590174D01*
X175963674Y-110068454D01*
X177210854Y-110069543D01*
X178178111Y-109669880D01*
X202811725Y-109669880D01*
X203093421Y-110092564D01*
X204245892Y-110569294D01*
X205493072Y-110568705D01*
X206642579Y-110092564D01*
X206924275Y-109669880D01*
X204868000Y-107613605D01*
X202811725Y-109669880D01*
X178178111Y-109669880D01*
X178363515Y-109593273D01*
X179246174Y-108712153D01*
X179724454Y-107560326D01*
X179725107Y-106811892D01*
X201732706Y-106811892D01*
X201733295Y-108059072D01*
X202209436Y-109208579D01*
X202632120Y-109490275D01*
X204688395Y-107434000D01*
X202632120Y-105377725D01*
X202209436Y-105659421D01*
X201732706Y-106811892D01*
X179725107Y-106811892D01*
X179725543Y-106313146D01*
X179264824Y-105198120D01*
X202811725Y-105198120D01*
X204868000Y-107254395D01*
X206924275Y-105198120D01*
X206642579Y-104775436D01*
X205490108Y-104298706D01*
X204242928Y-104299295D01*
X203093421Y-104775436D01*
X202811725Y-105198120D01*
X179264824Y-105198120D01*
X179249273Y-105160485D01*
X178368153Y-104277826D01*
X177340000Y-103850900D01*
X177340000Y-97330000D01*
X177308174Y-97170002D01*
X177282148Y-97039160D01*
X177117401Y-96792599D01*
X170457401Y-90132599D01*
X170210839Y-89967852D01*
X169920000Y-89910000D01*
X164272111Y-89910000D01*
X164234702Y-89854014D01*
X163814444Y-89573206D01*
X163446411Y-89500000D01*
X163814444Y-89426794D01*
X164234702Y-89145986D01*
X164405747Y-88890000D01*
X200995198Y-88890000D01*
X210308000Y-98202802D01*
X210308000Y-103855951D01*
X209294485Y-104274727D01*
X208411826Y-105155847D01*
X207933546Y-106307674D01*
X207933255Y-106641260D01*
X207526564Y-105659421D01*
X207103880Y-105377725D01*
X205047605Y-107434000D01*
X207103880Y-109490275D01*
X207526564Y-109208579D01*
X208003294Y-108056108D01*
X208003138Y-107725915D01*
X208408727Y-108707515D01*
X209289847Y-109590174D01*
X210441674Y-110068454D01*
X211688854Y-110069543D01*
X212841515Y-109593273D01*
X213724174Y-108712153D01*
X214202454Y-107560326D01*
X214203543Y-106313146D01*
X213727273Y-105160485D01*
X212846153Y-104277826D01*
X211828000Y-103855052D01*
X211828000Y-97888000D01*
X211770148Y-97597161D01*
X211605401Y-97350599D01*
X201847401Y-87592599D01*
X201600839Y-87427852D01*
X201310000Y-87370000D01*
X164272111Y-87370000D01*
X164234702Y-87314014D01*
X163814444Y-87033206D01*
X163446411Y-86960000D01*
X163814444Y-86886794D01*
X164234702Y-86605986D01*
X164405747Y-86350000D01*
X205800000Y-86350000D01*
X206090839Y-86292148D01*
X206337401Y-86127401D01*
X211605401Y-80859401D01*
X211770148Y-80612839D01*
X211828000Y-80322000D01*
X211828000Y-75534049D01*
X212841515Y-75115273D01*
X213724174Y-74234153D01*
X214202454Y-73082326D01*
X214203543Y-71835146D01*
X213727273Y-70682485D01*
X212846153Y-69799826D01*
X211694326Y-69321546D01*
X210447146Y-69320457D01*
X209294485Y-69796727D01*
X208411826Y-70677847D01*
X207933546Y-71829674D01*
X207933255Y-72163260D01*
X207526564Y-71181421D01*
X207103880Y-70899725D01*
X205047605Y-72956000D01*
X207103880Y-75012275D01*
X207526564Y-74730579D01*
X208003294Y-73578108D01*
X208003138Y-73247915D01*
X208408727Y-74229515D01*
X209289847Y-75112174D01*
X210308000Y-75534948D01*
X210308000Y-80007198D01*
X205485198Y-84830000D01*
X164272111Y-84830000D01*
X164234702Y-84774014D01*
X163814444Y-84493206D01*
X163446411Y-84420000D01*
X163814444Y-84346794D01*
X164234702Y-84065986D01*
X164405747Y-83810000D01*
X170750000Y-83810000D01*
X171040839Y-83752148D01*
X171287401Y-83587401D01*
X177127401Y-77747401D01*
X177292148Y-77500840D01*
X177350000Y-77210000D01*
X177350000Y-75534049D01*
X178178111Y-75191880D01*
X202811725Y-75191880D01*
X203093421Y-75614564D01*
X204245892Y-76091294D01*
X205493072Y-76090705D01*
X206642579Y-75614564D01*
X206924275Y-75191880D01*
X204868000Y-73135605D01*
X202811725Y-75191880D01*
X178178111Y-75191880D01*
X178363515Y-75115273D01*
X179246174Y-74234153D01*
X179724454Y-73082326D01*
X179725107Y-72333892D01*
X201732706Y-72333892D01*
X201733295Y-73581072D01*
X202209436Y-74730579D01*
X202632120Y-75012275D01*
X204688395Y-72956000D01*
X202632120Y-70899725D01*
X202209436Y-71181421D01*
X201732706Y-72333892D01*
X179725107Y-72333892D01*
X179725543Y-71835146D01*
X179264824Y-70720120D01*
X202811725Y-70720120D01*
X204868000Y-72776395D01*
X206924275Y-70720120D01*
X206642579Y-70297436D01*
X205490108Y-69820706D01*
X204242928Y-69821295D01*
X203093421Y-70297436D01*
X202811725Y-70720120D01*
X179264824Y-70720120D01*
X179249273Y-70682485D01*
X178368153Y-69799826D01*
X177216326Y-69321546D01*
X175969146Y-69320457D01*
X174816485Y-69796727D01*
X173933826Y-70677847D01*
X173455546Y-71829674D01*
X173455255Y-72163260D01*
X173048564Y-71181421D01*
X172625880Y-70899725D01*
X170569605Y-72956000D01*
X172625880Y-75012275D01*
X173048564Y-74730579D01*
X173525294Y-73578108D01*
X173525138Y-73247915D01*
X173930727Y-74229515D01*
X174811847Y-75112174D01*
X175830000Y-75534948D01*
X175830000Y-76895198D01*
X170435198Y-82290000D01*
X164272111Y-82290000D01*
X164234702Y-82234014D01*
X163814444Y-81953206D01*
X163446411Y-81880000D01*
X163814444Y-81806794D01*
X164234702Y-81525986D01*
X164515510Y-81105728D01*
X164614116Y-80610000D01*
X164515510Y-80114272D01*
X164234702Y-79694014D01*
X163814444Y-79413206D01*
X163446411Y-79340000D01*
X163814444Y-79266794D01*
X164234702Y-78985986D01*
X164405747Y-78730000D01*
X164650000Y-78730000D01*
X164940839Y-78672148D01*
X165187401Y-78507401D01*
X166147401Y-77547401D01*
X166312148Y-77300839D01*
X166370000Y-77010000D01*
X166370000Y-75191880D01*
X168333725Y-75191880D01*
X168615421Y-75614564D01*
X169767892Y-76091294D01*
X171015072Y-76090705D01*
X172164579Y-75614564D01*
X172446275Y-75191880D01*
X170390000Y-73135605D01*
X168333725Y-75191880D01*
X166370000Y-75191880D01*
X166370000Y-72333892D01*
X167254706Y-72333892D01*
X167255295Y-73581072D01*
X167731436Y-74730579D01*
X168154120Y-75012275D01*
X170210395Y-72956000D01*
X168154120Y-70899725D01*
X167731436Y-71181421D01*
X167254706Y-72333892D01*
X166370000Y-72333892D01*
X166370000Y-70720120D01*
X168333725Y-70720120D01*
X170390000Y-72776395D01*
X172446275Y-70720120D01*
X172164579Y-70297436D01*
X171012108Y-69820706D01*
X169764928Y-69821295D01*
X168615421Y-70297436D01*
X168333725Y-70720120D01*
X166370000Y-70720120D01*
X166370000Y-69604802D01*
X177127401Y-58847401D01*
X177292148Y-58600839D01*
X177350000Y-58310000D01*
X177350000Y-41056049D01*
X178178111Y-40713880D01*
X202811725Y-40713880D01*
X203093421Y-41136564D01*
X204245892Y-41613294D01*
X205493072Y-41612705D01*
X206642579Y-41136564D01*
X206924275Y-40713880D01*
X204868000Y-38657605D01*
X202811725Y-40713880D01*
X178178111Y-40713880D01*
X178363515Y-40637273D01*
X179246174Y-39756153D01*
X179724454Y-38604326D01*
X179725107Y-37855892D01*
X201732706Y-37855892D01*
X201733295Y-39103072D01*
X202209436Y-40252579D01*
X202632120Y-40534275D01*
X204688395Y-38478000D01*
X202632120Y-36421725D01*
X202209436Y-36703421D01*
X201732706Y-37855892D01*
X179725107Y-37855892D01*
X179725543Y-37357146D01*
X179264824Y-36242120D01*
X202811725Y-36242120D01*
X204868000Y-38298395D01*
X206924275Y-36242120D01*
X206642579Y-35819436D01*
X205490108Y-35342706D01*
X204242928Y-35343295D01*
X203093421Y-35819436D01*
X202811725Y-36242120D01*
X179264824Y-36242120D01*
X179249273Y-36204485D01*
X178368153Y-35321826D01*
X177216326Y-34843546D01*
X175969146Y-34842457D01*
X174816485Y-35318727D01*
X173933826Y-36199847D01*
X173455546Y-37351674D01*
X173455255Y-37685260D01*
X173048564Y-36703421D01*
X172625880Y-36421725D01*
X170569605Y-38478000D01*
X172625880Y-40534275D01*
X173048564Y-40252579D01*
X173525294Y-39100108D01*
X173525138Y-38769915D01*
X173930727Y-39751515D01*
X174811847Y-40634174D01*
X175830000Y-41056948D01*
X175830000Y-57995198D01*
X165072599Y-68752599D01*
X164907852Y-68999161D01*
X164850000Y-69290000D01*
X164850000Y-76695198D01*
X164335198Y-77210000D01*
X164272111Y-77210000D01*
X164234702Y-77154014D01*
X163814444Y-76873206D01*
X163446411Y-76800000D01*
X163814444Y-76726794D01*
X164234702Y-76445986D01*
X164515510Y-76025728D01*
X164614116Y-75530000D01*
X164515510Y-75034272D01*
X164234702Y-74614014D01*
X163814444Y-74333206D01*
X163318716Y-74234600D01*
X161921284Y-74234600D01*
X161425556Y-74333206D01*
X161005298Y-74614014D01*
X160724490Y-75034272D01*
X160625884Y-75530000D01*
X160724490Y-76025728D01*
X161005298Y-76445986D01*
X161425556Y-76726794D01*
X161793589Y-76800000D01*
X161425556Y-76873206D01*
X161005298Y-77154014D01*
X160724490Y-77574272D01*
X160625884Y-78070000D01*
X160724490Y-78565728D01*
X161005298Y-78985986D01*
X161425556Y-79266794D01*
X161793589Y-79340000D01*
X161425556Y-79413206D01*
X161265173Y-79520371D01*
X156610000Y-74865198D01*
X156610000Y-44214802D01*
X160110922Y-40713880D01*
X168333725Y-40713880D01*
X168615421Y-41136564D01*
X169767892Y-41613294D01*
X171015072Y-41612705D01*
X172164579Y-41136564D01*
X172446275Y-40713880D01*
X170390000Y-38657605D01*
X168333725Y-40713880D01*
X160110922Y-40713880D01*
X162968910Y-37855892D01*
X167254706Y-37855892D01*
X167255295Y-39103072D01*
X167731436Y-40252579D01*
X168154120Y-40534275D01*
X170210395Y-38478000D01*
X168154120Y-36421725D01*
X167731436Y-36703421D01*
X167254706Y-37855892D01*
X162968910Y-37855892D01*
X164582682Y-36242120D01*
X168333725Y-36242120D01*
X170390000Y-38298395D01*
X172446275Y-36242120D01*
X172164579Y-35819436D01*
X171012108Y-35342706D01*
X169764928Y-35343295D01*
X168615421Y-35819436D01*
X168333725Y-36242120D01*
X164582682Y-36242120D01*
X166744803Y-34080000D01*
X206095198Y-34080000D01*
X208354090Y-36338892D01*
X207933546Y-37351674D01*
X207933255Y-37685260D01*
X207526564Y-36703421D01*
X207103880Y-36421725D01*
X205047605Y-38478000D01*
X207103880Y-40534275D01*
X207526564Y-40252579D01*
X208003294Y-39100108D01*
X208003138Y-38769915D01*
X208408727Y-39751515D01*
X209289847Y-40634174D01*
X210441674Y-41112454D01*
X211688854Y-41113543D01*
X212841515Y-40637273D01*
X213724174Y-39756153D01*
X214202454Y-38604326D01*
X214203543Y-37357146D01*
X213727273Y-36204485D01*
X212846153Y-35321826D01*
X211694326Y-34843546D01*
X210447146Y-34842457D01*
X209428256Y-35263454D01*
X206947401Y-32782599D01*
X206838749Y-32710000D01*
X213930069Y-32710000D01*
X214488338Y-32821046D01*
X214488338Y-32821046D01*
G37*
X214488338Y-32821046D02*
X214902333Y-33097669D01*
X215178953Y-33511660D01*
X215290000Y-34069931D01*
X215290000Y-145930069D01*
X215178953Y-146488340D01*
X214902333Y-146902331D01*
X214488338Y-147178954D01*
X213930069Y-147290000D01*
X86069931Y-147290000D01*
X85511660Y-147178953D01*
X85097669Y-146902333D01*
X84821046Y-146488338D01*
X84710000Y-145930069D01*
X84710000Y-144147880D01*
X99377725Y-144147880D01*
X99659421Y-144570564D01*
X100811892Y-145047294D01*
X102059072Y-145046705D01*
X103208579Y-144570564D01*
X103490275Y-144147880D01*
X101434000Y-142091605D01*
X99377725Y-144147880D01*
X84710000Y-144147880D01*
X84710000Y-141289892D01*
X98298706Y-141289892D01*
X98299295Y-142537072D01*
X98775436Y-143686579D01*
X99198120Y-143968275D01*
X101254395Y-141912000D01*
X99198120Y-139855725D01*
X98775436Y-140137421D01*
X98298706Y-141289892D01*
X84710000Y-141289892D01*
X84710000Y-139676120D01*
X99377725Y-139676120D01*
X101434000Y-141732395D01*
X103490275Y-139676120D01*
X103208579Y-139253436D01*
X102056108Y-138776706D01*
X100808928Y-138777295D01*
X99659421Y-139253436D01*
X99377725Y-139676120D01*
X84710000Y-139676120D01*
X84710000Y-92204802D01*
X93860000Y-101354802D01*
X93860000Y-108460000D01*
X93917852Y-108750839D01*
X94082599Y-108997401D01*
X98262599Y-113177401D01*
X98509161Y-113342148D01*
X98800000Y-113400000D01*
X149767537Y-113400000D01*
X149799673Y-113432192D01*
X150143201Y-113574838D01*
X150515167Y-113575162D01*
X150800000Y-113457472D01*
X150800000Y-132405198D01*
X144169519Y-139035679D01*
X143890153Y-138755826D01*
X142738326Y-138277546D01*
X141491146Y-138276457D01*
X140338485Y-138752727D01*
X139455826Y-139633847D01*
X138977546Y-140785674D01*
X138977255Y-141119260D01*
X138570564Y-140137421D01*
X138147880Y-139855725D01*
X136091605Y-141912000D01*
X138147880Y-143968275D01*
X138570564Y-143686579D01*
X139047294Y-142534108D01*
X139047138Y-142203915D01*
X139452727Y-143185515D01*
X140333847Y-144068174D01*
X141485674Y-144546454D01*
X142732854Y-144547543D01*
X143885515Y-144071273D01*
X144768174Y-143190153D01*
X145246454Y-142038326D01*
X145247543Y-140791146D01*
X145047587Y-140307215D01*
X151250002Y-134104800D01*
X151250002Y-139305196D01*
X145665198Y-144890000D01*
X136915392Y-144890000D01*
X137686579Y-144570564D01*
X137968275Y-144147880D01*
X135912000Y-142091605D01*
X133855725Y-144147880D01*
X134137421Y-144570564D01*
X134909642Y-144890000D01*
X112186802Y-144890000D01*
X110347910Y-143051108D01*
X110768454Y-142038326D01*
X110769107Y-141289892D01*
X132776706Y-141289892D01*
X132777295Y-142537072D01*
X133253436Y-143686579D01*
X133676120Y-143968275D01*
X135732395Y-141912000D01*
X133676120Y-139855725D01*
X133253436Y-140137421D01*
X132776706Y-141289892D01*
X110769107Y-141289892D01*
X110769543Y-140791146D01*
X110308824Y-139676120D01*
X133855725Y-139676120D01*
X135912000Y-141732395D01*
X137968275Y-139676120D01*
X137686579Y-139253436D01*
X136534108Y-138776706D01*
X135286928Y-138777295D01*
X134137421Y-139253436D01*
X133855725Y-139676120D01*
X110308824Y-139676120D01*
X110293273Y-139638485D01*
X109412153Y-138755826D01*
X108260326Y-138277546D01*
X107013146Y-138276457D01*
X105860485Y-138752727D01*
X104977826Y-139633847D01*
X104499546Y-140785674D01*
X104499255Y-141119260D01*
X104092564Y-140137421D01*
X103669880Y-139855725D01*
X101613605Y-141912000D01*
X103669880Y-143968275D01*
X104092564Y-143686579D01*
X104569294Y-142534108D01*
X104569138Y-142203915D01*
X104974727Y-143185515D01*
X105855847Y-144068174D01*
X107007674Y-144546454D01*
X108254854Y-144547543D01*
X109273744Y-144126546D01*
X111334599Y-146187401D01*
X111581161Y-146352148D01*
X111872000Y-146410000D01*
X145980000Y-146410000D01*
X146270839Y-146352148D01*
X146517401Y-146187401D01*
X148556922Y-144147880D01*
X168333725Y-144147880D01*
X168615421Y-144570564D01*
X169767892Y-145047294D01*
X171015072Y-145046705D01*
X172164579Y-144570564D01*
X172446275Y-144147880D01*
X170390000Y-142091605D01*
X168333725Y-144147880D01*
X148556922Y-144147880D01*
X151414910Y-141289892D01*
X167254706Y-141289892D01*
X167255295Y-142537072D01*
X167731436Y-143686579D01*
X168154120Y-143968275D01*
X170210395Y-141912000D01*
X168154120Y-139855725D01*
X167731436Y-140137421D01*
X167254706Y-141289892D01*
X151414910Y-141289892D01*
X152547403Y-140157399D01*
X152712150Y-139910837D01*
X152758838Y-139676120D01*
X168333725Y-139676120D01*
X170390000Y-141732395D01*
X172446275Y-139676120D01*
X172164579Y-139253436D01*
X171012108Y-138776706D01*
X169764928Y-138777295D01*
X168615421Y-139253436D01*
X168333725Y-139676120D01*
X152758838Y-139676120D01*
X152770002Y-139619998D01*
X152770002Y-94690002D01*
X152712150Y-94399163D01*
X152547403Y-94152601D01*
X151067401Y-92672599D01*
X150820839Y-92507852D01*
X150530000Y-92450000D01*
X149032111Y-92450000D01*
X148994702Y-92394014D01*
X148574444Y-92113206D01*
X148206411Y-92040000D01*
X148574444Y-91966794D01*
X148994702Y-91685986D01*
X149275510Y-91265728D01*
X149374116Y-90770000D01*
X149275510Y-90274272D01*
X148994702Y-89854014D01*
X148574444Y-89573206D01*
X148206411Y-89500000D01*
X148574444Y-89426794D01*
X148994702Y-89145986D01*
X149275510Y-88725728D01*
X149374116Y-88230000D01*
X149275510Y-87734272D01*
X148994702Y-87314014D01*
X148574444Y-87033206D01*
X148206411Y-86960000D01*
X148574444Y-86886794D01*
X148994702Y-86605986D01*
X149275510Y-86185728D01*
X149374116Y-85690000D01*
X149275510Y-85194272D01*
X148994702Y-84774014D01*
X148574444Y-84493206D01*
X148206411Y-84420000D01*
X148574444Y-84346794D01*
X148994702Y-84065986D01*
X149275510Y-83645728D01*
X149374116Y-83150000D01*
X149275510Y-82654272D01*
X148994702Y-82234014D01*
X148574444Y-81953206D01*
X148206411Y-81880000D01*
X148574444Y-81806794D01*
X148994702Y-81525986D01*
X149165747Y-81270000D01*
X153780000Y-81270000D01*
X154070839Y-81212148D01*
X154317401Y-81047401D01*
X154482148Y-80800839D01*
X154540000Y-80510000D01*
X154519942Y-80409161D01*
X154482148Y-80219160D01*
X154450002Y-80171050D01*
X154450002Y-78414804D01*
X155513010Y-79477812D01*
X155491057Y-79486883D01*
X155227808Y-79749673D01*
X155085162Y-80093201D01*
X155085121Y-80140077D01*
X155062599Y-80162599D01*
X154897852Y-80409161D01*
X154840000Y-80700000D01*
X154840000Y-101200000D01*
X154897852Y-101490839D01*
X155062599Y-101737401D01*
X155170000Y-101844802D01*
X155170000Y-111480000D01*
X155227852Y-111770839D01*
X155392599Y-112017401D01*
X156064878Y-112689680D01*
X156064838Y-112735167D01*
X156206883Y-113078943D01*
X156469673Y-113342192D01*
X156813201Y-113484838D01*
X156920000Y-113484931D01*
X156920000Y-118470000D01*
X156977852Y-118760839D01*
X157142599Y-119007401D01*
X175830000Y-137694802D01*
X175830000Y-138333951D01*
X174816485Y-138752727D01*
X173933826Y-139633847D01*
X173455546Y-140785674D01*
X173455255Y-141119260D01*
X173048564Y-140137421D01*
X172625880Y-139855725D01*
X170569605Y-141912000D01*
X172625880Y-143968275D01*
X173048564Y-143686579D01*
X173525294Y-142534108D01*
X173525138Y-142203915D01*
X173930727Y-143185515D01*
X174811847Y-144068174D01*
X175963674Y-144546454D01*
X177210854Y-144547543D01*
X178178111Y-144147880D01*
X202811725Y-144147880D01*
X203093421Y-144570564D01*
X204245892Y-145047294D01*
X205493072Y-145046705D01*
X206642579Y-144570564D01*
X206924275Y-144147880D01*
X204868000Y-142091605D01*
X202811725Y-144147880D01*
X178178111Y-144147880D01*
X178363515Y-144071273D01*
X179246174Y-143190153D01*
X179724454Y-142038326D01*
X179725107Y-141289892D01*
X201732706Y-141289892D01*
X201733295Y-142537072D01*
X202209436Y-143686579D01*
X202632120Y-143968275D01*
X204688395Y-141912000D01*
X202632120Y-139855725D01*
X202209436Y-140137421D01*
X201732706Y-141289892D01*
X179725107Y-141289892D01*
X179725543Y-140791146D01*
X179264824Y-139676120D01*
X202811725Y-139676120D01*
X204868000Y-141732395D01*
X206924275Y-139676120D01*
X206642579Y-139253436D01*
X205490108Y-138776706D01*
X204242928Y-138777295D01*
X203093421Y-139253436D01*
X202811725Y-139676120D01*
X179264824Y-139676120D01*
X179249273Y-139638485D01*
X178368153Y-138755826D01*
X177350000Y-138333052D01*
X177350000Y-137380000D01*
X177292148Y-137089161D01*
X177292148Y-137089160D01*
X177127401Y-136842599D01*
X158440000Y-118155198D01*
X158440000Y-103797105D01*
X160706180Y-103797105D01*
X160714205Y-103848396D01*
X160953811Y-104296184D01*
X161346539Y-104618193D01*
X161832600Y-104765400D01*
X162493000Y-104765400D01*
X162493000Y-103597000D01*
X162747000Y-103597000D01*
X162747000Y-104765400D01*
X163407400Y-104765400D01*
X163893461Y-104618193D01*
X164286189Y-104296184D01*
X164525795Y-103848396D01*
X164533820Y-103797105D01*
X164409933Y-103597000D01*
X162747000Y-103597000D01*
X162493000Y-103597000D01*
X160830067Y-103597000D01*
X160706180Y-103797105D01*
X158440000Y-103797105D01*
X158440000Y-98054802D01*
X159984802Y-96510000D01*
X160834253Y-96510000D01*
X161005298Y-96765986D01*
X161425556Y-97046794D01*
X161793589Y-97120000D01*
X161425556Y-97193206D01*
X161005298Y-97474014D01*
X160724490Y-97894272D01*
X160625884Y-98390000D01*
X160724490Y-98885728D01*
X161005298Y-99305986D01*
X161425556Y-99586794D01*
X161793589Y-99660000D01*
X161425556Y-99733206D01*
X161005298Y-100014014D01*
X160724490Y-100434272D01*
X160625884Y-100930000D01*
X160724490Y-101425728D01*
X161005298Y-101845986D01*
X161425556Y-102126794D01*
X161766514Y-102194615D01*
X161346539Y-102321807D01*
X160953811Y-102643816D01*
X160714205Y-103091604D01*
X160706180Y-103142895D01*
X160830067Y-103343000D01*
X162493000Y-103343000D01*
X162493000Y-103323000D01*
X162747000Y-103323000D01*
X162747000Y-103343000D01*
X164409933Y-103343000D01*
X164533820Y-103142895D01*
X164525795Y-103091604D01*
X164286189Y-102643816D01*
X163893461Y-102321807D01*
X163473486Y-102194615D01*
X163814444Y-102126794D01*
X164234702Y-101845986D01*
X164515510Y-101425728D01*
X164614116Y-100930000D01*
X164515510Y-100434272D01*
X164234702Y-100014014D01*
X163814444Y-99733206D01*
X163446411Y-99660000D01*
X163814444Y-99586794D01*
X164234702Y-99305986D01*
X164515510Y-98885728D01*
X164614116Y-98390000D01*
X164515510Y-97894272D01*
X164234702Y-97474014D01*
X163814444Y-97193206D01*
X163446411Y-97120000D01*
X163814444Y-97046794D01*
X164234702Y-96765986D01*
X164515510Y-96345728D01*
X164614116Y-95850000D01*
X164515510Y-95354272D01*
X164234702Y-94934014D01*
X163814444Y-94653206D01*
X163446411Y-94580000D01*
X163814444Y-94506794D01*
X164234702Y-94225986D01*
X164405747Y-93970000D01*
X165050000Y-93970000D01*
X165050000Y-117040000D01*
X165107852Y-117330839D01*
X165272599Y-117577401D01*
X175032599Y-127337401D01*
X175279160Y-127502148D01*
X175570000Y-127560000D01*
X196141198Y-127560000D01*
X208354090Y-139772892D01*
X207933546Y-140785674D01*
X207933255Y-141119260D01*
X207526564Y-140137421D01*
X207103880Y-139855725D01*
X205047605Y-141912000D01*
X207103880Y-143968275D01*
X207526564Y-143686579D01*
X208003294Y-142534108D01*
X208003138Y-142203915D01*
X208408727Y-143185515D01*
X209289847Y-144068174D01*
X210441674Y-144546454D01*
X211688854Y-144547543D01*
X212841515Y-144071273D01*
X213724174Y-143190153D01*
X214202454Y-142038326D01*
X214203543Y-140791146D01*
X213727273Y-139638485D01*
X212846153Y-138755826D01*
X211694326Y-138277546D01*
X210447146Y-138276457D01*
X209428256Y-138697454D01*
X196993401Y-126262599D01*
X196746839Y-126097852D01*
X196456000Y-126040000D01*
X175884802Y-126040000D01*
X166570000Y-116725198D01*
X166570000Y-109669880D01*
X168333725Y-109669880D01*
X168615421Y-110092564D01*
X169767892Y-110569294D01*
X171015072Y-110568705D01*
X172164579Y-110092564D01*
X172446275Y-109669880D01*
X170390000Y-107613605D01*
X168333725Y-109669880D01*
X166570000Y-109669880D01*
X166570000Y-106811892D01*
X167254706Y-106811892D01*
X167255295Y-108059072D01*
X167731436Y-109208579D01*
X168154120Y-109490275D01*
X170210395Y-107434000D01*
X168154120Y-105377725D01*
X167731436Y-105659421D01*
X167254706Y-106811892D01*
X166570000Y-106811892D01*
X166570000Y-105198120D01*
X168333725Y-105198120D01*
X170390000Y-107254395D01*
X172446275Y-105198120D01*
X172164579Y-104775436D01*
X171012108Y-104298706D01*
X169764928Y-104299295D01*
X168615421Y-104775436D01*
X168333725Y-105198120D01*
X166570000Y-105198120D01*
X166570000Y-93270000D01*
X166512148Y-92979161D01*
X166347401Y-92732599D01*
X166287401Y-92672599D01*
X166040839Y-92507852D01*
X165750000Y-92450000D01*
X164272111Y-92450000D01*
X164234702Y-92394014D01*
X163814444Y-92113206D01*
X163446411Y-92040000D01*
X163814444Y-91966794D01*
X164234702Y-91685986D01*
X164405747Y-91430000D01*
X169605198Y-91430000D01*
X175820000Y-97644802D01*
X175820000Y-103860083D01*
X174816485Y-104274727D01*
X173933826Y-105155847D01*
X173455546Y-106307674D01*
X173455255Y-106641260D01*
X173048564Y-105659421D01*
X172625880Y-105377725D01*
X170569605Y-107434000D01*
X172625880Y-109490275D01*
X173048564Y-109208579D01*
X173525294Y-108056108D01*
X173525138Y-107725915D01*
X173930727Y-108707515D01*
X174811847Y-109590174D01*
X175963674Y-110068454D01*
X177210854Y-110069543D01*
X178178111Y-109669880D01*
X202811725Y-109669880D01*
X203093421Y-110092564D01*
X204245892Y-110569294D01*
X205493072Y-110568705D01*
X206642579Y-110092564D01*
X206924275Y-109669880D01*
X204868000Y-107613605D01*
X202811725Y-109669880D01*
X178178111Y-109669880D01*
X178363515Y-109593273D01*
X179246174Y-108712153D01*
X179724454Y-107560326D01*
X179725107Y-106811892D01*
X201732706Y-106811892D01*
X201733295Y-108059072D01*
X202209436Y-109208579D01*
X202632120Y-109490275D01*
X204688395Y-107434000D01*
X202632120Y-105377725D01*
X202209436Y-105659421D01*
X201732706Y-106811892D01*
X179725107Y-106811892D01*
X179725543Y-106313146D01*
X179264824Y-105198120D01*
X202811725Y-105198120D01*
X204868000Y-107254395D01*
X206924275Y-105198120D01*
X206642579Y-104775436D01*
X205490108Y-104298706D01*
X204242928Y-104299295D01*
X203093421Y-104775436D01*
X202811725Y-105198120D01*
X179264824Y-105198120D01*
X179249273Y-105160485D01*
X178368153Y-104277826D01*
X177340000Y-103850900D01*
X177340000Y-97330000D01*
X177308174Y-97170002D01*
X177282148Y-97039160D01*
X177117401Y-96792599D01*
X170457401Y-90132599D01*
X170210839Y-89967852D01*
X169920000Y-89910000D01*
X164272111Y-89910000D01*
X164234702Y-89854014D01*
X163814444Y-89573206D01*
X163446411Y-89500000D01*
X163814444Y-89426794D01*
X164234702Y-89145986D01*
X164405747Y-88890000D01*
X200995198Y-88890000D01*
X210308000Y-98202802D01*
X210308000Y-103855951D01*
X209294485Y-104274727D01*
X208411826Y-105155847D01*
X207933546Y-106307674D01*
X207933255Y-106641260D01*
X207526564Y-105659421D01*
X207103880Y-105377725D01*
X205047605Y-107434000D01*
X207103880Y-109490275D01*
X207526564Y-109208579D01*
X208003294Y-108056108D01*
X208003138Y-107725915D01*
X208408727Y-108707515D01*
X209289847Y-109590174D01*
X210441674Y-110068454D01*
X211688854Y-110069543D01*
X212841515Y-109593273D01*
X213724174Y-108712153D01*
X214202454Y-107560326D01*
X214203543Y-106313146D01*
X213727273Y-105160485D01*
X212846153Y-104277826D01*
X211828000Y-103855052D01*
X211828000Y-97888000D01*
X211770148Y-97597161D01*
X211605401Y-97350599D01*
X201847401Y-87592599D01*
X201600839Y-87427852D01*
X201310000Y-87370000D01*
X164272111Y-87370000D01*
X164234702Y-87314014D01*
X163814444Y-87033206D01*
X163446411Y-86960000D01*
X163814444Y-86886794D01*
X164234702Y-86605986D01*
X164405747Y-86350000D01*
X205800000Y-86350000D01*
X206090839Y-86292148D01*
X206337401Y-86127401D01*
X211605401Y-80859401D01*
X211770148Y-80612839D01*
X211828000Y-80322000D01*
X211828000Y-75534049D01*
X212841515Y-75115273D01*
X213724174Y-74234153D01*
X214202454Y-73082326D01*
X214203543Y-71835146D01*
X213727273Y-70682485D01*
X212846153Y-69799826D01*
X211694326Y-69321546D01*
X210447146Y-69320457D01*
X209294485Y-69796727D01*
X208411826Y-70677847D01*
X207933546Y-71829674D01*
X207933255Y-72163260D01*
X207526564Y-71181421D01*
X207103880Y-70899725D01*
X205047605Y-72956000D01*
X207103880Y-75012275D01*
X207526564Y-74730579D01*
X208003294Y-73578108D01*
X208003138Y-73247915D01*
X208408727Y-74229515D01*
X209289847Y-75112174D01*
X210308000Y-75534948D01*
X210308000Y-80007198D01*
X205485198Y-84830000D01*
X164272111Y-84830000D01*
X164234702Y-84774014D01*
X163814444Y-84493206D01*
X163446411Y-84420000D01*
X163814444Y-84346794D01*
X164234702Y-84065986D01*
X164405747Y-83810000D01*
X170750000Y-83810000D01*
X171040839Y-83752148D01*
X171287401Y-83587401D01*
X177127401Y-77747401D01*
X177292148Y-77500840D01*
X177350000Y-77210000D01*
X177350000Y-75534049D01*
X178178111Y-75191880D01*
X202811725Y-75191880D01*
X203093421Y-75614564D01*
X204245892Y-76091294D01*
X205493072Y-76090705D01*
X206642579Y-75614564D01*
X206924275Y-75191880D01*
X204868000Y-73135605D01*
X202811725Y-75191880D01*
X178178111Y-75191880D01*
X178363515Y-75115273D01*
X179246174Y-74234153D01*
X179724454Y-73082326D01*
X179725107Y-72333892D01*
X201732706Y-72333892D01*
X201733295Y-73581072D01*
X202209436Y-74730579D01*
X202632120Y-75012275D01*
X204688395Y-72956000D01*
X202632120Y-70899725D01*
X202209436Y-71181421D01*
X201732706Y-72333892D01*
X179725107Y-72333892D01*
X179725543Y-71835146D01*
X179264824Y-70720120D01*
X202811725Y-70720120D01*
X204868000Y-72776395D01*
X206924275Y-70720120D01*
X206642579Y-70297436D01*
X205490108Y-69820706D01*
X204242928Y-69821295D01*
X203093421Y-70297436D01*
X202811725Y-70720120D01*
X179264824Y-70720120D01*
X179249273Y-70682485D01*
X178368153Y-69799826D01*
X177216326Y-69321546D01*
X175969146Y-69320457D01*
X174816485Y-69796727D01*
X173933826Y-70677847D01*
X173455546Y-71829674D01*
X173455255Y-72163260D01*
X173048564Y-71181421D01*
X172625880Y-70899725D01*
X170569605Y-72956000D01*
X172625880Y-75012275D01*
X173048564Y-74730579D01*
X173525294Y-73578108D01*
X173525138Y-73247915D01*
X173930727Y-74229515D01*
X174811847Y-75112174D01*
X175830000Y-75534948D01*
X175830000Y-76895198D01*
X170435198Y-82290000D01*
X164272111Y-82290000D01*
X164234702Y-82234014D01*
X163814444Y-81953206D01*
X163446411Y-81880000D01*
X163814444Y-81806794D01*
X164234702Y-81525986D01*
X164515510Y-81105728D01*
X164614116Y-80610000D01*
X164515510Y-80114272D01*
X164234702Y-79694014D01*
X163814444Y-79413206D01*
X163446411Y-79340000D01*
X163814444Y-79266794D01*
X164234702Y-78985986D01*
X164405747Y-78730000D01*
X164650000Y-78730000D01*
X164940839Y-78672148D01*
X165187401Y-78507401D01*
X166147401Y-77547401D01*
X166312148Y-77300839D01*
X166370000Y-77010000D01*
X166370000Y-75191880D01*
X168333725Y-75191880D01*
X168615421Y-75614564D01*
X169767892Y-76091294D01*
X171015072Y-76090705D01*
X172164579Y-75614564D01*
X172446275Y-75191880D01*
X170390000Y-73135605D01*
X168333725Y-75191880D01*
X166370000Y-75191880D01*
X166370000Y-72333892D01*
X167254706Y-72333892D01*
X167255295Y-73581072D01*
X167731436Y-74730579D01*
X168154120Y-75012275D01*
X170210395Y-72956000D01*
X168154120Y-70899725D01*
X167731436Y-71181421D01*
X167254706Y-72333892D01*
X166370000Y-72333892D01*
X166370000Y-70720120D01*
X168333725Y-70720120D01*
X170390000Y-72776395D01*
X172446275Y-70720120D01*
X172164579Y-70297436D01*
X171012108Y-69820706D01*
X169764928Y-69821295D01*
X168615421Y-70297436D01*
X168333725Y-70720120D01*
X166370000Y-70720120D01*
X166370000Y-69604802D01*
X177127401Y-58847401D01*
X177292148Y-58600839D01*
X177350000Y-58310000D01*
X177350000Y-41056049D01*
X178178111Y-40713880D01*
X202811725Y-40713880D01*
X203093421Y-41136564D01*
X204245892Y-41613294D01*
X205493072Y-41612705D01*
X206642579Y-41136564D01*
X206924275Y-40713880D01*
X204868000Y-38657605D01*
X202811725Y-40713880D01*
X178178111Y-40713880D01*
X178363515Y-40637273D01*
X179246174Y-39756153D01*
X179724454Y-38604326D01*
X179725107Y-37855892D01*
X201732706Y-37855892D01*
X201733295Y-39103072D01*
X202209436Y-40252579D01*
X202632120Y-40534275D01*
X204688395Y-38478000D01*
X202632120Y-36421725D01*
X202209436Y-36703421D01*
X201732706Y-37855892D01*
X179725107Y-37855892D01*
X179725543Y-37357146D01*
X179264824Y-36242120D01*
X202811725Y-36242120D01*
X204868000Y-38298395D01*
X206924275Y-36242120D01*
X206642579Y-35819436D01*
X205490108Y-35342706D01*
X204242928Y-35343295D01*
X203093421Y-35819436D01*
X202811725Y-36242120D01*
X179264824Y-36242120D01*
X179249273Y-36204485D01*
X178368153Y-35321826D01*
X177216326Y-34843546D01*
X175969146Y-34842457D01*
X174816485Y-35318727D01*
X173933826Y-36199847D01*
X173455546Y-37351674D01*
X173455255Y-37685260D01*
X173048564Y-36703421D01*
X172625880Y-36421725D01*
X170569605Y-38478000D01*
X172625880Y-40534275D01*
X173048564Y-40252579D01*
X173525294Y-39100108D01*
X173525138Y-38769915D01*
X173930727Y-39751515D01*
X174811847Y-40634174D01*
X175830000Y-41056948D01*
X175830000Y-57995198D01*
X165072599Y-68752599D01*
X164907852Y-68999161D01*
X164850000Y-69290000D01*
X164850000Y-76695198D01*
X164335198Y-77210000D01*
X164272111Y-77210000D01*
X164234702Y-77154014D01*
X163814444Y-76873206D01*
X163446411Y-76800000D01*
X163814444Y-76726794D01*
X164234702Y-76445986D01*
X164515510Y-76025728D01*
X164614116Y-75530000D01*
X164515510Y-75034272D01*
X164234702Y-74614014D01*
X163814444Y-74333206D01*
X163318716Y-74234600D01*
X161921284Y-74234600D01*
X161425556Y-74333206D01*
X161005298Y-74614014D01*
X160724490Y-75034272D01*
X160625884Y-75530000D01*
X160724490Y-76025728D01*
X161005298Y-76445986D01*
X161425556Y-76726794D01*
X161793589Y-76800000D01*
X161425556Y-76873206D01*
X161005298Y-77154014D01*
X160724490Y-77574272D01*
X160625884Y-78070000D01*
X160724490Y-78565728D01*
X161005298Y-78985986D01*
X161425556Y-79266794D01*
X161793589Y-79340000D01*
X161425556Y-79413206D01*
X161265173Y-79520371D01*
X156610000Y-74865198D01*
X156610000Y-44214802D01*
X160110922Y-40713880D01*
X168333725Y-40713880D01*
X168615421Y-41136564D01*
X169767892Y-41613294D01*
X171015072Y-41612705D01*
X172164579Y-41136564D01*
X172446275Y-40713880D01*
X170390000Y-38657605D01*
X168333725Y-40713880D01*
X160110922Y-40713880D01*
X162968910Y-37855892D01*
X167254706Y-37855892D01*
X167255295Y-39103072D01*
X167731436Y-40252579D01*
X168154120Y-40534275D01*
X170210395Y-38478000D01*
X168154120Y-36421725D01*
X167731436Y-36703421D01*
X167254706Y-37855892D01*
X162968910Y-37855892D01*
X164582682Y-36242120D01*
X168333725Y-36242120D01*
X170390000Y-38298395D01*
X172446275Y-36242120D01*
X172164579Y-35819436D01*
X171012108Y-35342706D01*
X169764928Y-35343295D01*
X168615421Y-35819436D01*
X168333725Y-36242120D01*
X164582682Y-36242120D01*
X166744803Y-34080000D01*
X206095198Y-34080000D01*
X208354090Y-36338892D01*
X207933546Y-37351674D01*
X207933255Y-37685260D01*
X207526564Y-36703421D01*
X207103880Y-36421725D01*
X205047605Y-38478000D01*
X207103880Y-40534275D01*
X207526564Y-40252579D01*
X208003294Y-39100108D01*
X208003138Y-38769915D01*
X208408727Y-39751515D01*
X209289847Y-40634174D01*
X210441674Y-41112454D01*
X211688854Y-41113543D01*
X212841515Y-40637273D01*
X213724174Y-39756153D01*
X214202454Y-38604326D01*
X214203543Y-37357146D01*
X213727273Y-36204485D01*
X212846153Y-35321826D01*
X211694326Y-34843546D01*
X210447146Y-34842457D01*
X209428256Y-35263454D01*
X206947401Y-32782599D01*
X206838749Y-32710000D01*
X213930069Y-32710000D01*
X214488338Y-32821046D01*
G36*
X113594878Y-92229680D02*
X113594838Y-92275167D01*
X113736883Y-92618943D01*
X113999673Y-92882192D01*
X114108017Y-92927181D01*
X107096599Y-99938599D01*
X106931852Y-100185161D01*
X106874000Y-100476000D01*
X106874000Y-103855951D01*
X105860485Y-104274727D01*
X104977826Y-105155847D01*
X104499546Y-106307674D01*
X104499255Y-106641260D01*
X104092564Y-105659421D01*
X103669880Y-105377725D01*
X101613605Y-107434000D01*
X103669880Y-109490275D01*
X104092564Y-109208579D01*
X104569294Y-108056108D01*
X104569138Y-107725915D01*
X104974727Y-108707515D01*
X105855847Y-109590174D01*
X107007674Y-110068454D01*
X108254854Y-110069543D01*
X109222111Y-109669880D01*
X133855725Y-109669880D01*
X134137421Y-110092564D01*
X135289892Y-110569294D01*
X136537072Y-110568705D01*
X137686579Y-110092564D01*
X137968275Y-109669880D01*
X135912000Y-107613605D01*
X133855725Y-109669880D01*
X109222111Y-109669880D01*
X109407515Y-109593273D01*
X110290174Y-108712153D01*
X110768454Y-107560326D01*
X110769107Y-106811892D01*
X132776706Y-106811892D01*
X132777295Y-108059072D01*
X133253436Y-109208579D01*
X133676120Y-109490275D01*
X135732395Y-107434000D01*
X133676120Y-105377725D01*
X133253436Y-105659421D01*
X132776706Y-106811892D01*
X110769107Y-106811892D01*
X110769543Y-106313146D01*
X110308824Y-105198120D01*
X133855725Y-105198120D01*
X135912000Y-107254395D01*
X137968275Y-105198120D01*
X137686579Y-104775436D01*
X136534108Y-104298706D01*
X135286928Y-104299295D01*
X134137421Y-104775436D01*
X133855725Y-105198120D01*
X110308824Y-105198120D01*
X110293273Y-105160485D01*
X109412153Y-104277826D01*
X108394000Y-103855052D01*
X108394000Y-100790802D01*
X115010098Y-94174704D01*
X115106883Y-94408943D01*
X115369673Y-94672192D01*
X115713201Y-94814838D01*
X115760077Y-94814879D01*
X123752603Y-102807405D01*
X123999164Y-102972152D01*
X124047418Y-102981750D01*
X124290004Y-103030004D01*
X136265202Y-103030004D01*
X137092599Y-103857401D01*
X137339161Y-104022148D01*
X137630000Y-104080000D01*
X140809760Y-104080000D01*
X140338485Y-104274727D01*
X139455826Y-105155847D01*
X138977546Y-106307674D01*
X138977255Y-106641260D01*
X138570564Y-105659421D01*
X138147880Y-105377725D01*
X136091605Y-107434000D01*
X138147880Y-109490275D01*
X138570564Y-109208579D01*
X139047294Y-108056108D01*
X139047138Y-107725915D01*
X139452727Y-108707515D01*
X140333847Y-109590174D01*
X141485674Y-110068454D01*
X142732854Y-110069543D01*
X143885515Y-109593273D01*
X144768174Y-108712153D01*
X145246454Y-107560326D01*
X145247543Y-106313146D01*
X145127276Y-106022078D01*
X148212599Y-109107401D01*
X148459160Y-109272148D01*
X148750000Y-109330000D01*
X149697537Y-109330000D01*
X149729673Y-109362192D01*
X150073201Y-109504838D01*
X150445167Y-109505162D01*
X150788943Y-109363117D01*
X150800000Y-109352079D01*
X150800000Y-111822758D01*
X150516799Y-111705162D01*
X150144833Y-111704838D01*
X149801057Y-111846883D01*
X149767882Y-111880000D01*
X99114802Y-111880000D01*
X96904682Y-109669880D01*
X99377725Y-109669880D01*
X99659421Y-110092564D01*
X100811892Y-110569294D01*
X102059072Y-110568705D01*
X103208579Y-110092564D01*
X103490275Y-109669880D01*
X101434000Y-107613605D01*
X99377725Y-109669880D01*
X96904682Y-109669880D01*
X95380000Y-108145198D01*
X95380000Y-106811892D01*
X98298706Y-106811892D01*
X98299295Y-108059072D01*
X98775436Y-109208579D01*
X99198120Y-109490275D01*
X101254395Y-107434000D01*
X99198120Y-105377725D01*
X98775436Y-105659421D01*
X98298706Y-106811892D01*
X95380000Y-106811892D01*
X95380000Y-105198120D01*
X99377725Y-105198120D01*
X101434000Y-107254395D01*
X103490275Y-105198120D01*
X103208579Y-104775436D01*
X102056108Y-104298706D01*
X100808928Y-104299295D01*
X99659421Y-104775436D01*
X99377725Y-105198120D01*
X95380000Y-105198120D01*
X95380000Y-101040000D01*
X95360537Y-100942152D01*
X95322148Y-100749160D01*
X95157401Y-100502599D01*
X86139802Y-91485000D01*
X86714250Y-91485000D01*
X86873000Y-91326250D01*
X86873000Y-90127000D01*
X86853000Y-90127000D01*
X86853000Y-89873000D01*
X86873000Y-89873000D01*
X86873000Y-89853000D01*
X87127000Y-89853000D01*
X87127000Y-89873000D01*
X87147000Y-89873000D01*
X87147000Y-90127000D01*
X87127000Y-90127000D01*
X87127000Y-91326250D01*
X87285750Y-91485000D01*
X87976309Y-91485000D01*
X88209698Y-91388327D01*
X88388327Y-91209699D01*
X88456903Y-91044142D01*
X88460853Y-91050054D01*
X88942622Y-91371961D01*
X89510907Y-91485000D01*
X89569093Y-91485000D01*
X90137378Y-91371961D01*
X90619147Y-91050054D01*
X90812954Y-90760000D01*
X108870000Y-90760000D01*
X109160839Y-90702148D01*
X109407401Y-90537401D01*
X110019680Y-89925122D01*
X110065167Y-89925162D01*
X110408943Y-89783117D01*
X110672192Y-89520327D01*
X110734785Y-89369587D01*
X113594878Y-92229680D01*
X113594878Y-92229680D01*
G37*
X113594878Y-92229680D02*
X113594838Y-92275167D01*
X113736883Y-92618943D01*
X113999673Y-92882192D01*
X114108017Y-92927181D01*
X107096599Y-99938599D01*
X106931852Y-100185161D01*
X106874000Y-100476000D01*
X106874000Y-103855951D01*
X105860485Y-104274727D01*
X104977826Y-105155847D01*
X104499546Y-106307674D01*
X104499255Y-106641260D01*
X104092564Y-105659421D01*
X103669880Y-105377725D01*
X101613605Y-107434000D01*
X103669880Y-109490275D01*
X104092564Y-109208579D01*
X104569294Y-108056108D01*
X104569138Y-107725915D01*
X104974727Y-108707515D01*
X105855847Y-109590174D01*
X107007674Y-110068454D01*
X108254854Y-110069543D01*
X109222111Y-109669880D01*
X133855725Y-109669880D01*
X134137421Y-110092564D01*
X135289892Y-110569294D01*
X136537072Y-110568705D01*
X137686579Y-110092564D01*
X137968275Y-109669880D01*
X135912000Y-107613605D01*
X133855725Y-109669880D01*
X109222111Y-109669880D01*
X109407515Y-109593273D01*
X110290174Y-108712153D01*
X110768454Y-107560326D01*
X110769107Y-106811892D01*
X132776706Y-106811892D01*
X132777295Y-108059072D01*
X133253436Y-109208579D01*
X133676120Y-109490275D01*
X135732395Y-107434000D01*
X133676120Y-105377725D01*
X133253436Y-105659421D01*
X132776706Y-106811892D01*
X110769107Y-106811892D01*
X110769543Y-106313146D01*
X110308824Y-105198120D01*
X133855725Y-105198120D01*
X135912000Y-107254395D01*
X137968275Y-105198120D01*
X137686579Y-104775436D01*
X136534108Y-104298706D01*
X135286928Y-104299295D01*
X134137421Y-104775436D01*
X133855725Y-105198120D01*
X110308824Y-105198120D01*
X110293273Y-105160485D01*
X109412153Y-104277826D01*
X108394000Y-103855052D01*
X108394000Y-100790802D01*
X115010098Y-94174704D01*
X115106883Y-94408943D01*
X115369673Y-94672192D01*
X115713201Y-94814838D01*
X115760077Y-94814879D01*
X123752603Y-102807405D01*
X123999164Y-102972152D01*
X124047418Y-102981750D01*
X124290004Y-103030004D01*
X136265202Y-103030004D01*
X137092599Y-103857401D01*
X137339161Y-104022148D01*
X137630000Y-104080000D01*
X140809760Y-104080000D01*
X140338485Y-104274727D01*
X139455826Y-105155847D01*
X138977546Y-106307674D01*
X138977255Y-106641260D01*
X138570564Y-105659421D01*
X138147880Y-105377725D01*
X136091605Y-107434000D01*
X138147880Y-109490275D01*
X138570564Y-109208579D01*
X139047294Y-108056108D01*
X139047138Y-107725915D01*
X139452727Y-108707515D01*
X140333847Y-109590174D01*
X141485674Y-110068454D01*
X142732854Y-110069543D01*
X143885515Y-109593273D01*
X144768174Y-108712153D01*
X145246454Y-107560326D01*
X145247543Y-106313146D01*
X145127276Y-106022078D01*
X148212599Y-109107401D01*
X148459160Y-109272148D01*
X148750000Y-109330000D01*
X149697537Y-109330000D01*
X149729673Y-109362192D01*
X150073201Y-109504838D01*
X150445167Y-109505162D01*
X150788943Y-109363117D01*
X150800000Y-109352079D01*
X150800000Y-111822758D01*
X150516799Y-111705162D01*
X150144833Y-111704838D01*
X149801057Y-111846883D01*
X149767882Y-111880000D01*
X99114802Y-111880000D01*
X96904682Y-109669880D01*
X99377725Y-109669880D01*
X99659421Y-110092564D01*
X100811892Y-110569294D01*
X102059072Y-110568705D01*
X103208579Y-110092564D01*
X103490275Y-109669880D01*
X101434000Y-107613605D01*
X99377725Y-109669880D01*
X96904682Y-109669880D01*
X95380000Y-108145198D01*
X95380000Y-106811892D01*
X98298706Y-106811892D01*
X98299295Y-108059072D01*
X98775436Y-109208579D01*
X99198120Y-109490275D01*
X101254395Y-107434000D01*
X99198120Y-105377725D01*
X98775436Y-105659421D01*
X98298706Y-106811892D01*
X95380000Y-106811892D01*
X95380000Y-105198120D01*
X99377725Y-105198120D01*
X101434000Y-107254395D01*
X103490275Y-105198120D01*
X103208579Y-104775436D01*
X102056108Y-104298706D01*
X100808928Y-104299295D01*
X99659421Y-104775436D01*
X99377725Y-105198120D01*
X95380000Y-105198120D01*
X95380000Y-101040000D01*
X95360537Y-100942152D01*
X95322148Y-100749160D01*
X95157401Y-100502599D01*
X86139802Y-91485000D01*
X86714250Y-91485000D01*
X86873000Y-91326250D01*
X86873000Y-90127000D01*
X86853000Y-90127000D01*
X86853000Y-89873000D01*
X86873000Y-89873000D01*
X86873000Y-89853000D01*
X87127000Y-89853000D01*
X87127000Y-89873000D01*
X87147000Y-89873000D01*
X87147000Y-90127000D01*
X87127000Y-90127000D01*
X87127000Y-91326250D01*
X87285750Y-91485000D01*
X87976309Y-91485000D01*
X88209698Y-91388327D01*
X88388327Y-91209699D01*
X88456903Y-91044142D01*
X88460853Y-91050054D01*
X88942622Y-91371961D01*
X89510907Y-91485000D01*
X89569093Y-91485000D01*
X90137378Y-91371961D01*
X90619147Y-91050054D01*
X90812954Y-90760000D01*
X108870000Y-90760000D01*
X109160839Y-90702148D01*
X109407401Y-90537401D01*
X110019680Y-89925122D01*
X110065167Y-89925162D01*
X110408943Y-89783117D01*
X110672192Y-89520327D01*
X110734785Y-89369587D01*
X113594878Y-92229680D01*
G36*
X146185556Y-91966794D02*
X146553589Y-92040000D01*
X146185556Y-92113206D01*
X145765298Y-92394014D01*
X145484490Y-92814272D01*
X145385884Y-93310000D01*
X145484490Y-93805728D01*
X145765298Y-94225986D01*
X146185556Y-94506794D01*
X146553589Y-94580000D01*
X146185556Y-94653206D01*
X145765298Y-94934014D01*
X145484490Y-95354272D01*
X145385884Y-95850000D01*
X145484490Y-96345728D01*
X145765298Y-96765986D01*
X146185556Y-97046794D01*
X146526514Y-97114615D01*
X146106539Y-97241807D01*
X145713811Y-97563816D01*
X145474205Y-98011604D01*
X145466180Y-98062895D01*
X145590067Y-98263000D01*
X147253000Y-98263000D01*
X147253000Y-98243000D01*
X147507000Y-98243000D01*
X147507000Y-98263000D01*
X149169933Y-98263000D01*
X149293820Y-98062895D01*
X149285795Y-98011604D01*
X149046189Y-97563816D01*
X148653461Y-97241807D01*
X148233486Y-97114615D01*
X148574444Y-97046794D01*
X148994702Y-96765986D01*
X149165747Y-96510000D01*
X149495198Y-96510000D01*
X150800000Y-97814802D01*
X150800000Y-107787498D01*
X150790327Y-107777808D01*
X150446799Y-107635162D01*
X150074833Y-107634838D01*
X149731057Y-107776883D01*
X149697882Y-107810000D01*
X149064802Y-107810000D01*
X144037401Y-102782599D01*
X143790839Y-102617852D01*
X143500000Y-102560000D01*
X139854887Y-102560000D01*
X139855162Y-102244833D01*
X139807714Y-102130000D01*
X140197537Y-102130000D01*
X140229673Y-102162192D01*
X140573201Y-102304838D01*
X140945167Y-102305162D01*
X141288943Y-102163117D01*
X141552192Y-101900327D01*
X141694838Y-101556799D01*
X141695162Y-101184833D01*
X141589868Y-100930000D01*
X145385884Y-100930000D01*
X145484490Y-101425728D01*
X145765298Y-101845986D01*
X146185556Y-102126794D01*
X146553589Y-102200000D01*
X146185556Y-102273206D01*
X145765298Y-102554014D01*
X145484490Y-102974272D01*
X145385884Y-103470000D01*
X145484490Y-103965728D01*
X145765298Y-104385986D01*
X146185556Y-104666794D01*
X146681284Y-104765400D01*
X148078716Y-104765400D01*
X148574444Y-104666794D01*
X148994702Y-104385986D01*
X149275510Y-103965728D01*
X149374116Y-103470000D01*
X149275510Y-102974272D01*
X148994702Y-102554014D01*
X148574444Y-102273206D01*
X148206411Y-102200000D01*
X148574444Y-102126794D01*
X148994702Y-101845986D01*
X149275510Y-101425728D01*
X149374116Y-100930000D01*
X149275510Y-100434272D01*
X148994702Y-100014014D01*
X148574444Y-99733206D01*
X148233486Y-99665385D01*
X148653461Y-99538193D01*
X149046189Y-99216184D01*
X149285795Y-98768396D01*
X149293820Y-98717105D01*
X149169933Y-98517000D01*
X147507000Y-98517000D01*
X147507000Y-98537000D01*
X147253000Y-98537000D01*
X147253000Y-98517000D01*
X145590067Y-98517000D01*
X145466180Y-98717105D01*
X145474205Y-98768396D01*
X145713811Y-99216184D01*
X146106539Y-99538193D01*
X146526514Y-99665385D01*
X146185556Y-99733206D01*
X145765298Y-100014014D01*
X145484490Y-100434272D01*
X145385884Y-100930000D01*
X141589868Y-100930000D01*
X141553117Y-100841057D01*
X141290327Y-100577808D01*
X140946799Y-100435162D01*
X140574833Y-100434838D01*
X140231057Y-100576883D01*
X140197882Y-100610000D01*
X137628004Y-100610000D01*
X137724838Y-100376799D01*
X137724879Y-100329923D01*
X146127080Y-91927722D01*
X146185556Y-91966794D01*
X146185556Y-91966794D01*
G37*
X146185556Y-91966794D02*
X146553589Y-92040000D01*
X146185556Y-92113206D01*
X145765298Y-92394014D01*
X145484490Y-92814272D01*
X145385884Y-93310000D01*
X145484490Y-93805728D01*
X145765298Y-94225986D01*
X146185556Y-94506794D01*
X146553589Y-94580000D01*
X146185556Y-94653206D01*
X145765298Y-94934014D01*
X145484490Y-95354272D01*
X145385884Y-95850000D01*
X145484490Y-96345728D01*
X145765298Y-96765986D01*
X146185556Y-97046794D01*
X146526514Y-97114615D01*
X146106539Y-97241807D01*
X145713811Y-97563816D01*
X145474205Y-98011604D01*
X145466180Y-98062895D01*
X145590067Y-98263000D01*
X147253000Y-98263000D01*
X147253000Y-98243000D01*
X147507000Y-98243000D01*
X147507000Y-98263000D01*
X149169933Y-98263000D01*
X149293820Y-98062895D01*
X149285795Y-98011604D01*
X149046189Y-97563816D01*
X148653461Y-97241807D01*
X148233486Y-97114615D01*
X148574444Y-97046794D01*
X148994702Y-96765986D01*
X149165747Y-96510000D01*
X149495198Y-96510000D01*
X150800000Y-97814802D01*
X150800000Y-107787498D01*
X150790327Y-107777808D01*
X150446799Y-107635162D01*
X150074833Y-107634838D01*
X149731057Y-107776883D01*
X149697882Y-107810000D01*
X149064802Y-107810000D01*
X144037401Y-102782599D01*
X143790839Y-102617852D01*
X143500000Y-102560000D01*
X139854887Y-102560000D01*
X139855162Y-102244833D01*
X139807714Y-102130000D01*
X140197537Y-102130000D01*
X140229673Y-102162192D01*
X140573201Y-102304838D01*
X140945167Y-102305162D01*
X141288943Y-102163117D01*
X141552192Y-101900327D01*
X141694838Y-101556799D01*
X141695162Y-101184833D01*
X141589868Y-100930000D01*
X145385884Y-100930000D01*
X145484490Y-101425728D01*
X145765298Y-101845986D01*
X146185556Y-102126794D01*
X146553589Y-102200000D01*
X146185556Y-102273206D01*
X145765298Y-102554014D01*
X145484490Y-102974272D01*
X145385884Y-103470000D01*
X145484490Y-103965728D01*
X145765298Y-104385986D01*
X146185556Y-104666794D01*
X146681284Y-104765400D01*
X148078716Y-104765400D01*
X148574444Y-104666794D01*
X148994702Y-104385986D01*
X149275510Y-103965728D01*
X149374116Y-103470000D01*
X149275510Y-102974272D01*
X148994702Y-102554014D01*
X148574444Y-102273206D01*
X148206411Y-102200000D01*
X148574444Y-102126794D01*
X148994702Y-101845986D01*
X149275510Y-101425728D01*
X149374116Y-100930000D01*
X149275510Y-100434272D01*
X148994702Y-100014014D01*
X148574444Y-99733206D01*
X148233486Y-99665385D01*
X148653461Y-99538193D01*
X149046189Y-99216184D01*
X149285795Y-98768396D01*
X149293820Y-98717105D01*
X149169933Y-98517000D01*
X147507000Y-98517000D01*
X147507000Y-98537000D01*
X147253000Y-98537000D01*
X147253000Y-98517000D01*
X145590067Y-98517000D01*
X145466180Y-98717105D01*
X145474205Y-98768396D01*
X145713811Y-99216184D01*
X146106539Y-99538193D01*
X146526514Y-99665385D01*
X146185556Y-99733206D01*
X145765298Y-100014014D01*
X145484490Y-100434272D01*
X145385884Y-100930000D01*
X141589868Y-100930000D01*
X141553117Y-100841057D01*
X141290327Y-100577808D01*
X140946799Y-100435162D01*
X140574833Y-100434838D01*
X140231057Y-100576883D01*
X140197882Y-100610000D01*
X137628004Y-100610000D01*
X137724838Y-100376799D01*
X137724879Y-100329923D01*
X146127080Y-91927722D01*
X146185556Y-91966794D01*
G36*
X109273108Y-35264090D02*
X108260326Y-34843546D01*
X107013146Y-34842457D01*
X105860485Y-35318727D01*
X104977826Y-36199847D01*
X104499546Y-37351674D01*
X104499255Y-37685260D01*
X104092564Y-36703421D01*
X103669880Y-36421725D01*
X101613605Y-38478000D01*
X103669880Y-40534275D01*
X104092564Y-40252579D01*
X104569294Y-39100108D01*
X104569138Y-38769915D01*
X104974727Y-39751515D01*
X105855847Y-40634174D01*
X107007674Y-41112454D01*
X108254854Y-41113543D01*
X109222111Y-40713880D01*
X133855725Y-40713880D01*
X134137421Y-41136564D01*
X135289892Y-41613294D01*
X136537072Y-41612705D01*
X137686579Y-41136564D01*
X137968275Y-40713880D01*
X135912000Y-38657605D01*
X133855725Y-40713880D01*
X109222111Y-40713880D01*
X109407515Y-40637273D01*
X110290174Y-39756153D01*
X110768454Y-38604326D01*
X110769107Y-37855892D01*
X132776706Y-37855892D01*
X132777295Y-39103072D01*
X133253436Y-40252579D01*
X133676120Y-40534275D01*
X135732395Y-38478000D01*
X133676120Y-36421725D01*
X133253436Y-36703421D01*
X132776706Y-37855892D01*
X110769107Y-37855892D01*
X110769543Y-37357146D01*
X110348546Y-36338256D01*
X110444682Y-36242120D01*
X133855725Y-36242120D01*
X135912000Y-38298395D01*
X137968275Y-36242120D01*
X137686579Y-35819436D01*
X136534108Y-35342706D01*
X135286928Y-35343295D01*
X134137421Y-35819436D01*
X133855725Y-36242120D01*
X110444682Y-36242120D01*
X112686802Y-34000000D01*
X144345198Y-34000000D01*
X152930002Y-42584804D01*
X152930002Y-43875200D01*
X146495401Y-37440599D01*
X146248839Y-37275852D01*
X145958000Y-37218000D01*
X145190049Y-37218000D01*
X144771273Y-36204485D01*
X143890153Y-35321826D01*
X142738326Y-34843546D01*
X141491146Y-34842457D01*
X140338485Y-35318727D01*
X139455826Y-36199847D01*
X138977546Y-37351674D01*
X138977255Y-37685260D01*
X138570564Y-36703421D01*
X138147880Y-36421725D01*
X136091605Y-38478000D01*
X138147880Y-40534275D01*
X138570564Y-40252579D01*
X139047294Y-39100108D01*
X139047138Y-38769915D01*
X139452727Y-39751515D01*
X140333847Y-40634174D01*
X141485674Y-41112454D01*
X142732854Y-41113543D01*
X143885515Y-40637273D01*
X144768174Y-39756153D01*
X145190948Y-38738000D01*
X145643198Y-38738000D01*
X152480000Y-45574802D01*
X152480000Y-68575200D01*
X151197399Y-67292599D01*
X150950837Y-67127852D01*
X150659998Y-67070000D01*
X146814966Y-67070000D01*
X146815162Y-66844833D01*
X146673117Y-66501057D01*
X146410327Y-66237808D01*
X146066799Y-66095162D01*
X145694833Y-66094838D01*
X145351057Y-66236883D01*
X145087808Y-66499673D01*
X145037844Y-66619998D01*
X134413604Y-66619998D01*
X134122765Y-66677850D01*
X133876203Y-66842597D01*
X130762597Y-69956203D01*
X130597850Y-70202765D01*
X130539998Y-70493604D01*
X130539998Y-73575200D01*
X128985198Y-75130000D01*
X122760000Y-75130000D01*
X122469161Y-75187852D01*
X122222599Y-75352599D01*
X114197508Y-83377690D01*
X114151057Y-83396883D01*
X113887808Y-83659673D01*
X113745162Y-84003201D01*
X113744838Y-84375167D01*
X113746834Y-84379998D01*
X112401198Y-84379998D01*
X109390000Y-81368800D01*
X109390000Y-80302463D01*
X109422192Y-80270327D01*
X109564838Y-79926799D01*
X109565162Y-79554833D01*
X109423117Y-79211057D01*
X109160327Y-78947808D01*
X108816799Y-78805162D01*
X108444833Y-78804838D01*
X108394000Y-78825842D01*
X108394000Y-75534049D01*
X109407515Y-75115273D01*
X110290174Y-74234153D01*
X110768454Y-73082326D01*
X110769543Y-71835146D01*
X110293273Y-70682485D01*
X109412153Y-69799826D01*
X108260326Y-69321546D01*
X107013146Y-69320457D01*
X105860485Y-69796727D01*
X104977826Y-70677847D01*
X104499546Y-71829674D01*
X104499255Y-72163260D01*
X104092564Y-71181421D01*
X103669880Y-70899725D01*
X101613605Y-72956000D01*
X103669880Y-75012275D01*
X104092564Y-74730579D01*
X104569294Y-73578108D01*
X104569138Y-73247915D01*
X104974727Y-74229515D01*
X105855847Y-75112174D01*
X106874000Y-75534948D01*
X106874000Y-78635125D01*
X106544833Y-78634838D01*
X106201057Y-78776883D01*
X106187919Y-78789998D01*
X87640002Y-78789998D01*
X87349163Y-78847850D01*
X87102601Y-79012597D01*
X84710000Y-81405198D01*
X84710000Y-75191880D01*
X99377725Y-75191880D01*
X99659421Y-75614564D01*
X100811892Y-76091294D01*
X102059072Y-76090705D01*
X103208579Y-75614564D01*
X103490275Y-75191880D01*
X101434000Y-73135605D01*
X99377725Y-75191880D01*
X84710000Y-75191880D01*
X84710000Y-72333892D01*
X98298706Y-72333892D01*
X98299295Y-73581072D01*
X98775436Y-74730579D01*
X99198120Y-75012275D01*
X101254395Y-72956000D01*
X99198120Y-70899725D01*
X98775436Y-71181421D01*
X98298706Y-72333892D01*
X84710000Y-72333892D01*
X84710000Y-70720120D01*
X99377725Y-70720120D01*
X101434000Y-72776395D01*
X103490275Y-70720120D01*
X103208579Y-70297436D01*
X102056108Y-69820706D01*
X100808928Y-69821295D01*
X99659421Y-70297436D01*
X99377725Y-70720120D01*
X84710000Y-70720120D01*
X84710000Y-58615000D01*
X91543571Y-58615000D01*
X91543571Y-67535000D01*
X116456430Y-67535000D01*
X116456430Y-58615000D01*
X91543571Y-58615000D01*
X84710000Y-58615000D01*
X84710000Y-40713880D01*
X99377725Y-40713880D01*
X99659421Y-41136564D01*
X100811892Y-41613294D01*
X102059072Y-41612705D01*
X103208579Y-41136564D01*
X103490275Y-40713880D01*
X101434000Y-38657605D01*
X99377725Y-40713880D01*
X84710000Y-40713880D01*
X84710000Y-37855892D01*
X98298706Y-37855892D01*
X98299295Y-39103072D01*
X98775436Y-40252579D01*
X99198120Y-40534275D01*
X101254395Y-38478000D01*
X99198120Y-36421725D01*
X98775436Y-36703421D01*
X98298706Y-37855892D01*
X84710000Y-37855892D01*
X84710000Y-36242120D01*
X99377725Y-36242120D01*
X101434000Y-38298395D01*
X103490275Y-36242120D01*
X103208579Y-35819436D01*
X102056108Y-35342706D01*
X100808928Y-35343295D01*
X99659421Y-35819436D01*
X99377725Y-36242120D01*
X84710000Y-36242120D01*
X84710000Y-34069931D01*
X84821046Y-33511662D01*
X85097669Y-33097667D01*
X85511660Y-32821047D01*
X86069931Y-32710000D01*
X111827198Y-32710000D01*
X109273108Y-35264090D01*
X109273108Y-35264090D01*
G37*
X109273108Y-35264090D02*
X108260326Y-34843546D01*
X107013146Y-34842457D01*
X105860485Y-35318727D01*
X104977826Y-36199847D01*
X104499546Y-37351674D01*
X104499255Y-37685260D01*
X104092564Y-36703421D01*
X103669880Y-36421725D01*
X101613605Y-38478000D01*
X103669880Y-40534275D01*
X104092564Y-40252579D01*
X104569294Y-39100108D01*
X104569138Y-38769915D01*
X104974727Y-39751515D01*
X105855847Y-40634174D01*
X107007674Y-41112454D01*
X108254854Y-41113543D01*
X109222111Y-40713880D01*
X133855725Y-40713880D01*
X134137421Y-41136564D01*
X135289892Y-41613294D01*
X136537072Y-41612705D01*
X137686579Y-41136564D01*
X137968275Y-40713880D01*
X135912000Y-38657605D01*
X133855725Y-40713880D01*
X109222111Y-40713880D01*
X109407515Y-40637273D01*
X110290174Y-39756153D01*
X110768454Y-38604326D01*
X110769107Y-37855892D01*
X132776706Y-37855892D01*
X132777295Y-39103072D01*
X133253436Y-40252579D01*
X133676120Y-40534275D01*
X135732395Y-38478000D01*
X133676120Y-36421725D01*
X133253436Y-36703421D01*
X132776706Y-37855892D01*
X110769107Y-37855892D01*
X110769543Y-37357146D01*
X110348546Y-36338256D01*
X110444682Y-36242120D01*
X133855725Y-36242120D01*
X135912000Y-38298395D01*
X137968275Y-36242120D01*
X137686579Y-35819436D01*
X136534108Y-35342706D01*
X135286928Y-35343295D01*
X134137421Y-35819436D01*
X133855725Y-36242120D01*
X110444682Y-36242120D01*
X112686802Y-34000000D01*
X144345198Y-34000000D01*
X152930002Y-42584804D01*
X152930002Y-43875200D01*
X146495401Y-37440599D01*
X146248839Y-37275852D01*
X145958000Y-37218000D01*
X145190049Y-37218000D01*
X144771273Y-36204485D01*
X143890153Y-35321826D01*
X142738326Y-34843546D01*
X141491146Y-34842457D01*
X140338485Y-35318727D01*
X139455826Y-36199847D01*
X138977546Y-37351674D01*
X138977255Y-37685260D01*
X138570564Y-36703421D01*
X138147880Y-36421725D01*
X136091605Y-38478000D01*
X138147880Y-40534275D01*
X138570564Y-40252579D01*
X139047294Y-39100108D01*
X139047138Y-38769915D01*
X139452727Y-39751515D01*
X140333847Y-40634174D01*
X141485674Y-41112454D01*
X142732854Y-41113543D01*
X143885515Y-40637273D01*
X144768174Y-39756153D01*
X145190948Y-38738000D01*
X145643198Y-38738000D01*
X152480000Y-45574802D01*
X152480000Y-68575200D01*
X151197399Y-67292599D01*
X150950837Y-67127852D01*
X150659998Y-67070000D01*
X146814966Y-67070000D01*
X146815162Y-66844833D01*
X146673117Y-66501057D01*
X146410327Y-66237808D01*
X146066799Y-66095162D01*
X145694833Y-66094838D01*
X145351057Y-66236883D01*
X145087808Y-66499673D01*
X145037844Y-66619998D01*
X134413604Y-66619998D01*
X134122765Y-66677850D01*
X133876203Y-66842597D01*
X130762597Y-69956203D01*
X130597850Y-70202765D01*
X130539998Y-70493604D01*
X130539998Y-73575200D01*
X128985198Y-75130000D01*
X122760000Y-75130000D01*
X122469161Y-75187852D01*
X122222599Y-75352599D01*
X114197508Y-83377690D01*
X114151057Y-83396883D01*
X113887808Y-83659673D01*
X113745162Y-84003201D01*
X113744838Y-84375167D01*
X113746834Y-84379998D01*
X112401198Y-84379998D01*
X109390000Y-81368800D01*
X109390000Y-80302463D01*
X109422192Y-80270327D01*
X109564838Y-79926799D01*
X109565162Y-79554833D01*
X109423117Y-79211057D01*
X109160327Y-78947808D01*
X108816799Y-78805162D01*
X108444833Y-78804838D01*
X108394000Y-78825842D01*
X108394000Y-75534049D01*
X109407515Y-75115273D01*
X110290174Y-74234153D01*
X110768454Y-73082326D01*
X110769543Y-71835146D01*
X110293273Y-70682485D01*
X109412153Y-69799826D01*
X108260326Y-69321546D01*
X107013146Y-69320457D01*
X105860485Y-69796727D01*
X104977826Y-70677847D01*
X104499546Y-71829674D01*
X104499255Y-72163260D01*
X104092564Y-71181421D01*
X103669880Y-70899725D01*
X101613605Y-72956000D01*
X103669880Y-75012275D01*
X104092564Y-74730579D01*
X104569294Y-73578108D01*
X104569138Y-73247915D01*
X104974727Y-74229515D01*
X105855847Y-75112174D01*
X106874000Y-75534948D01*
X106874000Y-78635125D01*
X106544833Y-78634838D01*
X106201057Y-78776883D01*
X106187919Y-78789998D01*
X87640002Y-78789998D01*
X87349163Y-78847850D01*
X87102601Y-79012597D01*
X84710000Y-81405198D01*
X84710000Y-75191880D01*
X99377725Y-75191880D01*
X99659421Y-75614564D01*
X100811892Y-76091294D01*
X102059072Y-76090705D01*
X103208579Y-75614564D01*
X103490275Y-75191880D01*
X101434000Y-73135605D01*
X99377725Y-75191880D01*
X84710000Y-75191880D01*
X84710000Y-72333892D01*
X98298706Y-72333892D01*
X98299295Y-73581072D01*
X98775436Y-74730579D01*
X99198120Y-75012275D01*
X101254395Y-72956000D01*
X99198120Y-70899725D01*
X98775436Y-71181421D01*
X98298706Y-72333892D01*
X84710000Y-72333892D01*
X84710000Y-70720120D01*
X99377725Y-70720120D01*
X101434000Y-72776395D01*
X103490275Y-70720120D01*
X103208579Y-70297436D01*
X102056108Y-69820706D01*
X100808928Y-69821295D01*
X99659421Y-70297436D01*
X99377725Y-70720120D01*
X84710000Y-70720120D01*
X84710000Y-58615000D01*
X91543571Y-58615000D01*
X91543571Y-67535000D01*
X116456430Y-67535000D01*
X116456430Y-58615000D01*
X91543571Y-58615000D01*
X84710000Y-58615000D01*
X84710000Y-40713880D01*
X99377725Y-40713880D01*
X99659421Y-41136564D01*
X100811892Y-41613294D01*
X102059072Y-41612705D01*
X103208579Y-41136564D01*
X103490275Y-40713880D01*
X101434000Y-38657605D01*
X99377725Y-40713880D01*
X84710000Y-40713880D01*
X84710000Y-37855892D01*
X98298706Y-37855892D01*
X98299295Y-39103072D01*
X98775436Y-40252579D01*
X99198120Y-40534275D01*
X101254395Y-38478000D01*
X99198120Y-36421725D01*
X98775436Y-36703421D01*
X98298706Y-37855892D01*
X84710000Y-37855892D01*
X84710000Y-36242120D01*
X99377725Y-36242120D01*
X101434000Y-38298395D01*
X103490275Y-36242120D01*
X103208579Y-35819436D01*
X102056108Y-35342706D01*
X100808928Y-35343295D01*
X99659421Y-35819436D01*
X99377725Y-36242120D01*
X84710000Y-36242120D01*
X84710000Y-34069931D01*
X84821046Y-33511662D01*
X85097669Y-33097667D01*
X85511660Y-32821047D01*
X86069931Y-32710000D01*
X111827198Y-32710000D01*
X109273108Y-35264090D01*
G36*
X108735198Y-84160000D02*
X90812954Y-84160000D01*
X90619147Y-83869946D01*
X90278447Y-83642298D01*
X90421358Y-83575183D01*
X90811645Y-83146924D01*
X90981476Y-82736890D01*
X90860155Y-82507000D01*
X89667000Y-82507000D01*
X89667000Y-82527000D01*
X89413000Y-82527000D01*
X89413000Y-82507000D01*
X89393000Y-82507000D01*
X89393000Y-82253000D01*
X89413000Y-82253000D01*
X89413000Y-81059181D01*
X89667000Y-81059181D01*
X89667000Y-82253000D01*
X90860155Y-82253000D01*
X90981476Y-82023110D01*
X90811645Y-81613076D01*
X90421358Y-81184817D01*
X89896892Y-80938514D01*
X89667000Y-81059181D01*
X89413000Y-81059181D01*
X89183108Y-80938514D01*
X88658642Y-81184817D01*
X88268355Y-81613076D01*
X88268345Y-81613101D01*
X88145521Y-81429281D01*
X88814802Y-80760000D01*
X105335198Y-80760000D01*
X108735198Y-84160000D01*
X108735198Y-84160000D01*
G37*
X108735198Y-84160000D02*
X90812954Y-84160000D01*
X90619147Y-83869946D01*
X90278447Y-83642298D01*
X90421358Y-83575183D01*
X90811645Y-83146924D01*
X90981476Y-82736890D01*
X90860155Y-82507000D01*
X89667000Y-82507000D01*
X89667000Y-82527000D01*
X89413000Y-82527000D01*
X89413000Y-82507000D01*
X89393000Y-82507000D01*
X89393000Y-82253000D01*
X89413000Y-82253000D01*
X89413000Y-81059181D01*
X89667000Y-81059181D01*
X89667000Y-82253000D01*
X90860155Y-82253000D01*
X90981476Y-82023110D01*
X90811645Y-81613076D01*
X90421358Y-81184817D01*
X89896892Y-80938514D01*
X89667000Y-81059181D01*
X89413000Y-81059181D01*
X89183108Y-80938514D01*
X88658642Y-81184817D01*
X88268355Y-81613076D01*
X88268345Y-81613101D01*
X88145521Y-81429281D01*
X88814802Y-80760000D01*
X105335198Y-80760000D01*
X108735198Y-84160000D01*
G36*
X151870000Y-70114804D02*
X151870000Y-74455758D01*
X151601057Y-74566883D01*
X151337808Y-74829673D01*
X151195162Y-75173201D01*
X151194838Y-75545167D01*
X151336883Y-75888943D01*
X151599673Y-76152192D01*
X151686819Y-76188379D01*
X150665198Y-77210000D01*
X149032111Y-77210000D01*
X148994702Y-77154014D01*
X148574444Y-76873206D01*
X148206411Y-76800000D01*
X148574444Y-76726794D01*
X148994702Y-76445986D01*
X149275510Y-76025728D01*
X149374116Y-75530000D01*
X149275510Y-75034272D01*
X148994702Y-74614014D01*
X148574444Y-74333206D01*
X148078716Y-74234600D01*
X146681284Y-74234600D01*
X146185556Y-74333206D01*
X145765298Y-74614014D01*
X145484490Y-75034272D01*
X145385884Y-75530000D01*
X145484490Y-76025728D01*
X145765298Y-76445986D01*
X146185556Y-76726794D01*
X146553589Y-76800000D01*
X146185556Y-76873206D01*
X145765298Y-77154014D01*
X145484490Y-77574272D01*
X145385884Y-78070000D01*
X145484490Y-78565728D01*
X145765298Y-78985986D01*
X146185556Y-79266794D01*
X146553589Y-79340000D01*
X146185556Y-79413206D01*
X145765298Y-79694014D01*
X145484490Y-80114272D01*
X145385884Y-80610000D01*
X145484490Y-81105728D01*
X145765298Y-81525986D01*
X146185556Y-81806794D01*
X146553589Y-81880000D01*
X146185556Y-81953206D01*
X145765298Y-82234014D01*
X145727889Y-82290000D01*
X142872000Y-82290000D01*
X142872000Y-75534049D01*
X143885515Y-75115273D01*
X144768174Y-74234153D01*
X145246454Y-73082326D01*
X145247543Y-71835146D01*
X144771273Y-70682485D01*
X143890153Y-69799826D01*
X142738326Y-69321546D01*
X141491146Y-69320457D01*
X140338485Y-69796727D01*
X139455826Y-70677847D01*
X138977546Y-71829674D01*
X138977255Y-72163260D01*
X138570564Y-71181421D01*
X138147880Y-70899725D01*
X136091605Y-72956000D01*
X138147880Y-75012275D01*
X138570564Y-74730579D01*
X139047294Y-73578108D01*
X139047138Y-73247915D01*
X139452727Y-74229515D01*
X140333847Y-75112174D01*
X141352000Y-75534948D01*
X141352000Y-82327198D01*
X137547401Y-78522599D01*
X137300839Y-78357852D01*
X137010000Y-78300000D01*
X122061200Y-78300000D01*
X123261198Y-77100002D01*
X129486396Y-77100002D01*
X129777235Y-77042150D01*
X130023797Y-76877403D01*
X131709320Y-75191880D01*
X133855725Y-75191880D01*
X134137421Y-75614564D01*
X135289892Y-76091294D01*
X136537072Y-76090705D01*
X137686579Y-75614564D01*
X137968275Y-75191880D01*
X135912000Y-73135605D01*
X133855725Y-75191880D01*
X131709320Y-75191880D01*
X132287401Y-74613799D01*
X132452148Y-74367238D01*
X132478620Y-74234153D01*
X132510000Y-74076398D01*
X132510000Y-72333892D01*
X132776706Y-72333892D01*
X132777295Y-73581072D01*
X133253436Y-74730579D01*
X133676120Y-75012275D01*
X135732395Y-72956000D01*
X133676120Y-70899725D01*
X133253436Y-71181421D01*
X132776706Y-72333892D01*
X132510000Y-72333892D01*
X132510000Y-70994802D01*
X132784682Y-70720120D01*
X133855725Y-70720120D01*
X135912000Y-72776395D01*
X137968275Y-70720120D01*
X137686579Y-70297436D01*
X136534108Y-69820706D01*
X135286928Y-69821295D01*
X134137421Y-70297436D01*
X133855725Y-70720120D01*
X132784682Y-70720120D01*
X134914802Y-68590000D01*
X150345196Y-68590000D01*
X151870000Y-70114804D01*
X151870000Y-70114804D01*
G37*
X151870000Y-70114804D02*
X151870000Y-74455758D01*
X151601057Y-74566883D01*
X151337808Y-74829673D01*
X151195162Y-75173201D01*
X151194838Y-75545167D01*
X151336883Y-75888943D01*
X151599673Y-76152192D01*
X151686819Y-76188379D01*
X150665198Y-77210000D01*
X149032111Y-77210000D01*
X148994702Y-77154014D01*
X148574444Y-76873206D01*
X148206411Y-76800000D01*
X148574444Y-76726794D01*
X148994702Y-76445986D01*
X149275510Y-76025728D01*
X149374116Y-75530000D01*
X149275510Y-75034272D01*
X148994702Y-74614014D01*
X148574444Y-74333206D01*
X148078716Y-74234600D01*
X146681284Y-74234600D01*
X146185556Y-74333206D01*
X145765298Y-74614014D01*
X145484490Y-75034272D01*
X145385884Y-75530000D01*
X145484490Y-76025728D01*
X145765298Y-76445986D01*
X146185556Y-76726794D01*
X146553589Y-76800000D01*
X146185556Y-76873206D01*
X145765298Y-77154014D01*
X145484490Y-77574272D01*
X145385884Y-78070000D01*
X145484490Y-78565728D01*
X145765298Y-78985986D01*
X146185556Y-79266794D01*
X146553589Y-79340000D01*
X146185556Y-79413206D01*
X145765298Y-79694014D01*
X145484490Y-80114272D01*
X145385884Y-80610000D01*
X145484490Y-81105728D01*
X145765298Y-81525986D01*
X146185556Y-81806794D01*
X146553589Y-81880000D01*
X146185556Y-81953206D01*
X145765298Y-82234014D01*
X145727889Y-82290000D01*
X142872000Y-82290000D01*
X142872000Y-75534049D01*
X143885515Y-75115273D01*
X144768174Y-74234153D01*
X145246454Y-73082326D01*
X145247543Y-71835146D01*
X144771273Y-70682485D01*
X143890153Y-69799826D01*
X142738326Y-69321546D01*
X141491146Y-69320457D01*
X140338485Y-69796727D01*
X139455826Y-70677847D01*
X138977546Y-71829674D01*
X138977255Y-72163260D01*
X138570564Y-71181421D01*
X138147880Y-70899725D01*
X136091605Y-72956000D01*
X138147880Y-75012275D01*
X138570564Y-74730579D01*
X139047294Y-73578108D01*
X139047138Y-73247915D01*
X139452727Y-74229515D01*
X140333847Y-75112174D01*
X141352000Y-75534948D01*
X141352000Y-82327198D01*
X137547401Y-78522599D01*
X137300839Y-78357852D01*
X137010000Y-78300000D01*
X122061200Y-78300000D01*
X123261198Y-77100002D01*
X129486396Y-77100002D01*
X129777235Y-77042150D01*
X130023797Y-76877403D01*
X131709320Y-75191880D01*
X133855725Y-75191880D01*
X134137421Y-75614564D01*
X135289892Y-76091294D01*
X136537072Y-76090705D01*
X137686579Y-75614564D01*
X137968275Y-75191880D01*
X135912000Y-73135605D01*
X133855725Y-75191880D01*
X131709320Y-75191880D01*
X132287401Y-74613799D01*
X132452148Y-74367238D01*
X132478620Y-74234153D01*
X132510000Y-74076398D01*
X132510000Y-72333892D01*
X132776706Y-72333892D01*
X132777295Y-73581072D01*
X133253436Y-74730579D01*
X133676120Y-75012275D01*
X135732395Y-72956000D01*
X133676120Y-70899725D01*
X133253436Y-71181421D01*
X132776706Y-72333892D01*
X132510000Y-72333892D01*
X132510000Y-70994802D01*
X132784682Y-70720120D01*
X133855725Y-70720120D01*
X135912000Y-72776395D01*
X137968275Y-70720120D01*
X137686579Y-70297436D01*
X136534108Y-69820706D01*
X135286928Y-69821295D01*
X134137421Y-70297436D01*
X133855725Y-70720120D01*
X132784682Y-70720120D01*
X134914802Y-68590000D01*
X150345196Y-68590000D01*
X151870000Y-70114804D01*
M02*
